<?xml version="1.0" encoding="UTF-8" standalone="no"?>
<!-- Created with Inkscape (http://www.inkscape.org/) -->

<svg
   xmlns:dc="http://purl.org/dc/elements/1.1/"
   xmlns:cc="http://creativecommons.org/ns#"
   xmlns:rdf="http://www.w3.org/1999/02/22-rdf-syntax-ns#"
   xmlns:svg="http://www.w3.org/2000/svg"
   xmlns="http://www.w3.org/2000/svg"
   xmlns:sodipodi="http://sodipodi.sourceforge.net/DTD/sodipodi-0.dtd"
   xmlns:inkscape="http://www.inkscape.org/namespaces/inkscape"
   width="182.91847mm"
   height="119.41904mm"
   viewBox="0 0 182.91847 119.41904"
   version="1.1"
   id="svg1578"
   inkscape:version="0.92.4 (5da689c313, 2019-01-14)"
   sodipodi:docname="rehabilitate.svg">
  <defs
     id="defs1572" />
  <sodipodi:namedview
     id="base"
     pagecolor="#ffffff"
     bordercolor="#666666"
     borderopacity="1.0"
     inkscape:pageopacity="0.0"
     inkscape:pageshadow="2"
     inkscape:zoom="0.74103833"
     inkscape:cx="448.76207"
     inkscape:cy="165.84482"
     inkscape:document-units="mm"
     inkscape:current-layer="layer1"
     showgrid="false"
     inkscape:window-width="1640"
     inkscape:window-height="985"
     inkscape:window-x="40"
     inkscape:window-y="0"
     inkscape:window-maximized="1" />
  <metadata
     id="metadata1575">
    <rdf:RDF>
      <cc:Work
         rdf:about="">
        <dc:format>image/svg+xml</dc:format>
        <dc:type
           rdf:resource="http://purl.org/dc/dcmitype/StillImage" />
        <dc:title />
      </cc:Work>
    </rdf:RDF>
  </metadata>
  <g
     inkscape:label="Layer 1"
     inkscape:groupmode="layer"
     id="layer1"
     transform="translate(71.0636,-73.29407)">
    <g
       id="g2356"
       transform="matrix(0.75956425,0,0,0.78288483,11.548188,34.607346)">
      <path
         d="m 132.05819,139.71437 c 0,-34.91442 -28.30371,-63.218134 -63.218134,-63.218134 -1.28905,0 -2.568222,0.04339 -3.838928,0.119591 C 51.113325,59.992937 30.231701,49.415601 6.8767526,49.415601 c -35.6668936,0 -65.5679876,24.665518 -73.5898016,57.867909 -21.087999,5.88927 -36.558401,25.2409 -36.558401,48.20779 0,13.75551 5.550608,26.21382 14.532789,35.26078 H 106.14525 c 15.70884,-11.5019 25.91294,-30.07671 25.91294,-51.03771"
         style="fill:#caeded;fill-opacity:1;fill-rule:nonzero;stroke:none;stroke-width:0.03527778"
         id="path16"
         inkscape:connector-curvature="0" />
      <path
         d="m 129.0236,196.36689 v 0 c 0,-0.61694 -0.49989,-1.1169 -1.1169,-1.1169 h -7.76817 c -0.617,0 -1.11689,-0.50024 -1.11689,-1.11717 v 0 c 0,-0.61694 -0.50024,-1.11732 -1.11725,-1.11732 h -2.07151 c -0.61701,0 -1.11725,-0.50024 -1.11725,-1.1169 v 0 c 0,-0.61693 -0.50023,-1.11717 -1.11724,-1.11717 H -93.337013 c -0.616832,0 -1.117036,0.50024 -1.117036,1.11717 v 0 c 0,0.61666 -0.500239,1.1169 -1.117036,1.1169 h -2.071758 c -0.616938,0 -1.117036,0.50038 -1.117036,1.11732 v 0 c 0,0.61693 -0.500238,1.11717 -1.117317,1.11717 h -7.767604 c -0.61708,0 -1.11728,0.49996 -1.11728,1.1169 v 0 c 0,0.61708 0.5002,1.11731 1.11728,1.11731 h 70.565791 c 0.617009,0 1.117248,0.50024 1.117248,1.11718 v 0 c 0,0.61708 -0.500239,1.1169 -1.117248,1.1169 h -39.344602 c -0.617008,0 -1.116895,0.50038 -1.116895,1.11731 v 0 c 0,0.61694 0.499887,1.11718 1.116895,1.11718 H 116.03361 c 0.61701,0 1.11725,-0.50024 1.11725,-1.11718 v 0 c 0,-0.61693 -0.50024,-1.11731 -1.11725,-1.11731 H 78.109293 c -0.617008,0 -1.117247,-0.49982 -1.117247,-1.1169 v 0 c 0,-0.61694 0.500239,-1.11718 1.117247,-1.11718 H 127.9067 c 0.61701,0 1.1169,-0.50023 1.1169,-1.11731"
         style="fill:#8bd8d0;fill-opacity:1;fill-rule:nonzero;stroke:none;stroke-width:0.03527778"
         id="path18"
         inkscape:connector-curvature="0" />
      <path
         d="m -83.802664,201.95277 h -9.054395 c -0.617079,0 -1.117318,-0.50024 -1.117318,-1.11718 v 0 c 0,-0.61693 0.500239,-1.11731 1.117318,-1.11731 h 9.054395 c 0.617008,0 1.117247,0.50038 1.117247,1.11731 v 0 c 0,0.61694 -0.500239,1.11718 -1.117247,1.11718"
         style="fill:#8bd8d0;fill-opacity:1;fill-rule:nonzero;stroke:none;stroke-width:0.03527778"
         id="path20"
         inkscape:connector-curvature="0" />
      <path
         d="M 34.088268,159.65725 H 32.35366 l -0.46355,4.1589 1.845733,-0.99766 0.352425,-3.16124"
         style="fill:#3f244a;fill-opacity:1;fill-rule:nonzero;stroke:none;stroke-width:0.03527778"
         id="path22"
         inkscape:connector-curvature="0" />
      <path
         d="m 31.89011,163.81615 -2.946753,26.41487 h 1.734608 l 3.057878,-27.41253 -1.845733,0.99766"
         style="fill:#93a2b0;fill-opacity:1;fill-rule:nonzero;stroke:none;stroke-width:0.03527778"
         id="path24"
         inkscape:connector-curvature="0" />
      <path
         d="m 47.023219,163.35401 -2.997906,26.87701 h 1.734609 l 3.109383,-27.87431 -1.846086,0.9973"
         style="fill:#93a2b0;fill-opacity:1;fill-rule:nonzero;stroke:none;stroke-width:0.03527778"
         id="path26"
         inkscape:connector-curvature="0" />
      <path
         d="m 49.170225,159.65725 h -1.734609 l -0.412397,3.69676 1.846086,-0.9973 0.30092,-2.69946"
         style="fill:#3f244a;fill-opacity:1;fill-rule:nonzero;stroke:none;stroke-width:0.03527778"
         id="path28"
         inkscape:connector-curvature="0" />
      <path
         d="m 55.696967,159.65725 h -1.734609 l 0.422981,3.79377 1.636183,-0.88406 -0.324555,-2.90971"
         style="fill:#3f244a;fill-opacity:1;fill-rule:nonzero;stroke:none;stroke-width:0.03527778"
         id="path30"
         inkscape:connector-curvature="0" />
      <path
         d="m 59.10727,190.23102 -3.085748,-27.66406 -1.636183,0.88406 2.987322,26.78 h 1.734609"
         style="fill:#93a2b0;fill-opacity:1;fill-rule:nonzero;stroke:none;stroke-width:0.03527778"
         id="path32"
         inkscape:connector-curvature="0" />
      <path
         d="m 70.778923,159.65725 h -1.734608 l 0.394405,3.53907 1.636184,-0.88406 -0.295981,-2.65501"
         style="fill:#3f244a;fill-opacity:1;fill-rule:nonzero;stroke:none;stroke-width:0.03527778"
         id="path34"
         inkscape:connector-curvature="0" />
      <path
         d="m 74.188873,190.23102 -3.113969,-27.91876 -1.636184,0.88406 3.015545,27.0347 h 1.734608"
         style="fill:#93a2b0;fill-opacity:1;fill-rule:nonzero;stroke:none;stroke-width:0.03527778"
         id="path36"
         inkscape:connector-curvature="0" />
      <path
         d="m 31.104826,159.65725 3.53e-4,-7e-4 c 1.575859,-3.40995 4.989689,-5.5933 8.746067,-5.5933 h 11.479743 l 6.207125,-40.40117 8.72102,-7.05379 h 5.523442 c 6.91762,0 12.208229,6.1655 11.158009,13.00304 l -5.233106,34.0621 c -0.528814,3.44206 -3.490736,5.98382 -6.973711,5.98382 H 31.104826"
         style="fill:#73769e;fill-opacity:1;fill-rule:nonzero;stroke:none;stroke-width:0.03527778"
         id="path38"
         inkscape:connector-curvature="0" />
      <path
         d="m 25.581737,159.65725 3.53e-4,-7e-4 c 1.575858,-3.40995 4.989336,-5.5933 8.746067,-5.5933 h 11.479742 l 5.29202,-34.44663 c 1.150056,-7.48348 7.588251,-13.00833 15.159215,-13.00833 v 0 c 6.918326,0 12.208581,6.1655 11.158009,13.00304 l -4.649258,30.26304 c -0.370064,2.40983 -2.44334,4.18888 -4.881387,4.18888 h -7.242175 c -3.756026,0 -7.170209,2.18335 -8.745715,5.5933 l -3.53e-4,7e-4 H 25.581737"
         style="fill:#3e4c78;fill-opacity:1;fill-rule:nonzero;stroke:none;stroke-width:0.03527778"
         id="path40"
         inkscape:connector-curvature="0" />
      <path
         d="m 42.067044,106.63792 c 1.686983,0.83009 3.765903,0.81139 5.437364,-0.0494 1.294694,-0.66675 2.318103,-1.82738 2.855383,-3.17852 h -1.364544 c -0.779286,0 -1.411111,-0.63183 -1.411111,-1.41111 v -4.703591 l -6.085417,1.5875 v 3.410301 c 0,0.77929 -0.631825,1.41111 -1.411112,1.41111 h -0.849841 c 0.578555,1.25766 1.585383,2.32163 2.829278,2.9337"
         style="fill:#f79484;fill-opacity:1;fill-rule:nonzero;stroke:none;stroke-width:0.03527778"
         id="path42"
         inkscape:connector-curvature="0" />
      <path
         d="m 47.584136,97.295309 c -1.029053,3.674891 -3.14572,5.203471 -6.085417,4.174421 v -2.586921 l 6.085417,-1.5875"
         style="fill:#3f244a;fill-opacity:1;fill-rule:nonzero;stroke:none;stroke-width:0.03527778"
         id="path44"
         inkscape:connector-curvature="0" />
      <path
         d="m 35.854274,92.003642 c -2.38125,-1.793169 -1.5875,-5.468056 -1.234722,-5.997222 -0.857603,-0.51435 -1.691923,-1.213203 -2.196748,-2.076451 -0.504472,-0.862894 -0.696383,-1.940983 -0.35948,-2.882547 0.336902,-0.941211 1.259416,-1.687336 2.258836,-1.669697 1.166636,0.02081 2.08915,0.973314 3.190875,1.356078 1.113367,0.386644 2.340328,0.168275 3.480859,-0.128059 1.141236,-0.29598 2.294114,-0.670278 3.469569,-0.583494 0.99695,0.07373 1.966031,0.491419 2.703689,1.16593 0.738011,0.674864 1.24072,1.602317 1.40335,2.588684 0.951442,-0.455789 2.280356,-0.09454 2.863851,0.784578 0.562327,0.846314 0.478719,1.952272 0.344664,2.959453 -0.243417,1.82245 -1.231195,6.224058 -1.666876,8.010525 l -3.292475,0.823031 -10.965392,-4.350809"
         style="fill:#3f244a;fill-opacity:1;fill-rule:nonzero;stroke:none;stroke-width:0.03527778"
         id="path46"
         inkscape:connector-curvature="0" />
      <path
         d="m 49.121541,92.945559 c 0.31362,-0.500945 0.779639,-0.9271 1.347964,-1.089378 0.568325,-0.16263 1.238603,-0.02117 1.621367,0.429331 0.31997,0.376766 0.40252,0.913694 0.31362,1.399822 -0.08855,0.486128 -0.329848,0.930628 -0.598664,1.345495 -0.24377,0.376061 -0.516467,0.739775 -0.862542,1.025172 -0.345722,0.285044 -0.772231,0.48895 -1.220611,0.506941 -0.447675,0.01834 -0.9144,-0.168275 -1.175456,-0.533047 -0.294922,-0.413103 -0.212725,-0.996244 -0.07832,-1.456619 0.162278,-0.556331 0.343959,-1.133828 0.652639,-1.627717"
         style="fill:#f79484;fill-opacity:1;fill-rule:nonzero;stroke:none;stroke-width:0.03527778"
         id="path48"
         inkscape:connector-curvature="0" />
      <path
         d="m 49.662702,95.858798 c -0.225072,0 -0.437797,-0.09384 -0.541513,-0.239183 -0.04727,-0.06632 -0.140053,-0.282575 0.02505,-0.848784 0.147461,-0.50553 0.313266,-1.034344 0.573969,-1.451328 0.249414,-0.398639 0.59302,-0.685094 0.943328,-0.785283 0.08784,-0.02469 0.179917,-0.03775 0.274814,-0.03775 0.254353,0 0.484364,0.09208 0.614892,0.245886 0.155222,0.183092 0.215547,0.496005 0.156986,0.815975 -0.07197,0.396875 -0.303389,0.790222 -0.496711,1.089025 -0.260703,0.40252 -0.482248,0.66922 -0.718961,0.864306 -0.257881,0.212725 -0.542573,0.335844 -0.800453,0.346427 l -0.0314,7.06e-4"
         style="fill:#f2546e;fill-opacity:1;fill-rule:nonzero;stroke:none;stroke-width:0.03527778"
         id="path50"
         inkscape:connector-curvature="0" />
      <path
         d="m 48.025108,91.591951 c 0,0 -2.822222,-1.175809 -2.447925,-4.493684 -2.954162,0.945092 -6.220884,0.867833 -9.13377,-0.194028 -0.649111,1.047045 -1.030111,2.277534 -1.030111,3.600098 v 3.292475 c 0,3.783189 3.066344,6.849888 6.849533,6.849888 v 0 c 3.128434,0 5.761215,-2.099382 6.580717,-4.964644 -0.181327,-0.195439 -0.351013,-0.402519 -0.493183,-0.633589 -0.612775,-0.995539 -0.762353,-2.372078 -0.325261,-3.456516"
         style="fill:#f79484;fill-opacity:1;fill-rule:nonzero;stroke:none;stroke-width:0.03527778"
         id="path52"
         inkscape:connector-curvature="0" />
      <path
         d="m 37.029024,89.977639 c -0.608895,0.1524 -1.093964,0.672395 -1.351139,1.351845 l 2.983795,-0.746125 c -0.428273,-0.508 -1.023056,-0.75812 -1.632656,-0.60572"
         style="fill:#3f244a;fill-opacity:1;fill-rule:nonzero;stroke:none;stroke-width:0.03527778"
         id="path54"
         inkscape:connector-curvature="0" />
      <path
         d="m 37.771974,92.387112 c 0,0.332669 -0.204258,0.601839 -0.456142,0.601839 -0.251883,0 -0.455789,-0.26917 -0.455789,-0.601839 0,-0.331964 0.203906,-0.601486 0.455789,-0.601486 0.251884,0 0.456142,0.269522 0.456142,0.601486"
         style="fill:#3f244a;fill-opacity:1;fill-rule:nonzero;stroke:none;stroke-width:0.03527778"
         id="path56"
         inkscape:connector-curvature="0" />
      <path
         d="m 43.520488,90.301842 c 0.804334,0.1524 1.443567,0.672395 1.783292,1.351845 l -3.937353,-0.746125 c 0.564797,-0.508 1.350081,-0.75812 2.154061,-0.60572"
         style="fill:#3f244a;fill-opacity:1;fill-rule:nonzero;stroke:none;stroke-width:0.03527778"
         id="path58"
         inkscape:connector-curvature="0" />
      <path
         d="m 42.540471,92.711667 c 0,0.332317 0.269523,0.601486 0.601839,0.601486 0.33267,0 0.601839,-0.269169 0.601839,-0.601486 0,-0.332669 -0.269169,-0.601839 -0.601839,-0.601839 -0.332316,0 -0.601839,0.26917 -0.601839,0.601839"
         style="fill:#3f244a;fill-opacity:1;fill-rule:nonzero;stroke:none;stroke-width:0.03527778"
         id="path60"
         inkscape:connector-curvature="0" />
      <path
         d="m 40.40546,96.127262 c -0.0021,0 -0.0049,-3.53e-4 -0.0074,-3.53e-4 -0.31115,-0.02752 -0.625122,-0.06738 -0.94615,-0.109714 -0.327025,-0.04304 -0.620536,-0.223308 -0.806097,-0.4953 -0.181328,-0.264936 -0.2413,-0.594078 -0.165453,-0.902758 0.249766,-1.016 0.585258,-2.020006 0.996597,-2.984148 0.0187,-0.04516 0.07161,-0.06562 0.115358,-0.04657 0.0448,0.01905 0.06562,0.07091 0.04657,0.115711 -0.407458,0.955322 -0.739422,1.950156 -0.986719,2.956983 -0.06526,0.264231 -0.01552,0.534459 0.139347,0.761295 0.156986,0.230364 0.4064,0.383469 0.68333,0.419805 0.319264,0.04198 0.63112,0.08185 0.938389,0.109009 0.04868,0.0042 0.08431,0.04692 0.08008,0.0956 -0.0039,0.04586 -0.04233,0.08043 -0.08784,0.08043"
         style="fill:#3f244a;fill-opacity:1;fill-rule:nonzero;stroke:none;stroke-width:0.03527778"
         id="path62"
         inkscape:connector-curvature="0" />
      <path
         d="m 43.15501,96.485331 c -1.462264,0.171098 -2.924528,0.342195 -4.386792,0.512939 0.541514,0.703439 1.419226,1.15817 2.30364,1.080911 0.884413,-0.07726 1.671461,-0.807508 2.083152,-1.59385"
         style="fill:#ffffff;fill-opacity:1;fill-rule:nonzero;stroke:none;stroke-width:0.03527778"
         id="path64"
         inkscape:connector-curvature="0" />
      <path
         d="M 48.346841,138.86418 H 35.471863 l -19.900549,5.43489 c -4.6609,1.27318 -7.1836141,6.3119 -5.4102,10.80594 l 8.789106,22.27086 8.642351,-3.39231 -3.350684,-18.49226 h 7.702198 l 16.402756,-10.68846 v -5.93866"
         style="fill:#3d88c4;fill-opacity:1;fill-rule:nonzero;stroke:none;stroke-width:0.03527778"
         id="path66"
         inkscape:connector-curvature="0" />
      <path
         d="m 28.526373,173.61702 -10.509603,4.12539 1.139119,3.75888 10.509957,-4.12542 -1.139473,-3.75885"
         style="fill:#57abda;fill-opacity:1;fill-rule:nonzero;stroke:none;stroke-width:0.03527778"
         id="path68"
         inkscape:connector-curvature="0" />
      <path
         d="m 18.427051,190.75208 c -0.160867,0.47554 -0.249062,0.98005 -0.249062,1.4993 H 32.41469 l -0.458611,-1.4993 H 18.427051"
         style="fill:#d5555f;fill-opacity:1;fill-rule:nonzero;stroke:none;stroke-width:0.03527778"
         id="path70"
         inkscape:connector-curvature="0" />
      <path
         d="m 28.057532,178.00699 -6.931379,2.72097 1.720498,4.54406 c 0.32385,0.85521 -0.05962,1.81586 -0.883356,2.2134 l -1.137708,0.54889 c -1.151467,0.55534 -2.002014,1.54587 -2.398536,2.71777 h 13.529028 l -3.898547,-12.74509"
         style="fill:#9f2e46;fill-opacity:1;fill-rule:nonzero;stroke:none;stroke-width:0.03527778"
         id="path72"
         inkscape:connector-curvature="0" />
      <path
         d="m 27.204515,152.13673 0.653344,3.35457 h 4.086226 l 16.402756,-10.68846 v -3.4544 l -16.197792,3.35703 c -3.404659,0.70591 -5.608815,4.01814 -4.944534,7.43126"
         style="fill:#307bac;fill-opacity:1;fill-rule:nonzero;stroke:none;stroke-width:0.03527778"
         id="path74"
         inkscape:connector-curvature="0" />
      <path
         d="m 54.492583,138.86418 -16.792928,4.5032 c -4.734279,1.2693 -7.821437,5.81907 -7.252406,10.68776 l 2.437694,20.85129 H 42.93911 l 0.79375,-20.7257 H 51.053 c 7.209014,0 13.052778,-5.84376 13.052778,-13.05278 v -5.63457 l -9.613195,3.3708"
         style="fill:#3d88c4;fill-opacity:1;fill-rule:nonzero;stroke:none;stroke-width:0.03527778"
         id="path76"
         inkscape:connector-curvature="0" />
      <path
         d="M 43.762141,178.49312 H 31.944085 v -3.58669 h 11.818056 v 3.58669"
         style="fill:#57abda;fill-opacity:1;fill-rule:nonzero;stroke:none;stroke-width:0.03527778"
         id="path78"
         inkscape:connector-curvature="0" />
      <path
         d="m 42.174641,178.49312 h -8.525228 v 6.00212 c 0,1.88281 -1.025173,3.61569 -2.675467,4.5223 -1.171223,0.64339 -2.02565,1.7049 -2.423937,2.93962 h 13.624632 v -13.46404"
         style="fill:#be3955;fill-opacity:1;fill-rule:nonzero;stroke:none;stroke-width:0.03527778"
         id="path80"
         inkscape:connector-curvature="0" />
      <path
         d="m 28.550009,191.95716 c -0.16263,0.50451 -0.251177,1.03657 -0.251177,1.58267 v 0.12266 h 13.875809 v -1.70533 H 28.550009"
         style="fill:#f57a5d;fill-opacity:1;fill-rule:nonzero;stroke:none;stroke-width:0.03527778"
         id="path82"
         inkscape:connector-curvature="0" />
      <path
         d="m 43.73286,154.18073 0.214842,-5.61481 v 0 c 1.399117,1.47496 1.698272,3.67912 0.742597,5.47335 l -0.07549,0.14146 H 43.73286"
         style="fill:#307bac;fill-opacity:1;fill-rule:nonzero;stroke:none;stroke-width:0.03527778"
         id="path84"
         inkscape:connector-curvature="0" />
      <path
         d="m 42.174641,174.99462 c -0.04868,0 -0.08819,-0.0395 -0.08819,-0.0882 v -21.60765 c 0,-0.0487 0.03951,-0.0882 0.08819,-0.0882 0.04868,0 0.08819,0.0395 0.08819,0.0882 v 21.60765 c 0,0.0487 -0.03951,0.0882 -0.08819,0.0882"
         style="fill:#3f244a;fill-opacity:1;fill-rule:nonzero;stroke:none;stroke-width:0.03527778"
         id="path86"
         inkscape:connector-curvature="0" />
      <path
         d="m 26.738143,169.35617 c -0.04198,0 -0.07867,-0.03 -0.08678,-0.0723 l -3.818114,-21.07142 c -0.0088,-0.048 0.02293,-0.0942 0.07091,-0.10265 0.05009,-0.009 0.09384,0.0233 0.102658,0.0709 l 3.818114,21.07142 c 0.0088,0.0476 -0.02293,0.0938 -0.07091,0.10266 -0.0056,0.001 -0.01058,0.001 -0.01587,0.001"
         style="fill:#3f244a;fill-opacity:1;fill-rule:nonzero;stroke:none;stroke-width:0.03527778"
         id="path88"
         inkscape:connector-curvature="0" />
      <path
         d="m 24.829262,173.70522 c -0.03986,0 -0.07585,-0.0272 -0.08573,-0.0677 l -5.46735,-22.52274 c -0.01129,-0.0473 0.01764,-0.0949 0.06491,-0.10654 0.04727,-0.0113 0.0949,0.018 0.106539,0.0649 l 5.46735,22.5231 c 0.01129,0.0473 -0.01764,0.0949 -0.06491,0.10654 -0.0071,0.002 -0.01376,0.002 -0.02081,0.002"
         style="fill:#3f244a;fill-opacity:1;fill-rule:nonzero;stroke:none;stroke-width:0.03527778"
         id="path90"
         inkscape:connector-curvature="0" />
      <path
         d="m 18.682462,143.53778 c -0.03881,0 -0.07444,-0.0258 -0.08502,-0.0653 -0.0127,-0.0466 0.01482,-0.0952 0.06209,-0.10795 l 16.789401,-4.5854 c 0.04692,-0.0123 0.09525,0.0152 0.10795,0.0621 0.0127,0.0466 -0.01482,0.0952 -0.06209,0.10795 l -16.789048,4.5854 c -0.0078,0.002 -0.01552,0.003 -0.02328,0.003"
         style="fill:#3f244a;fill-opacity:1;fill-rule:nonzero;stroke:none;stroke-width:0.03527778"
         id="path92"
         inkscape:connector-curvature="0" />
      <path
         d="m 31.833312,165.99879 c -0.0441,0 -0.08255,-0.0332 -0.08749,-0.078 L 30.35976,154.06537 c -0.570089,-4.87609 2.57563,-9.51195 7.317317,-10.78336 l 13.956595,-3.74226 c 0.04727,-0.012 0.0956,0.0152 0.10795,0.0624 0.0127,0.0469 -0.01517,0.0952 -0.06244,0.10759 l -13.956595,3.74262 c -4.657372,1.24884 -7.747706,5.80249 -7.187848,10.59216 l 1.386064,11.8558 c 0.0056,0.0483 -0.02893,0.0921 -0.07726,0.0977 -0.0035,3.5e-4 -0.0071,7.1e-4 -0.01023,7.1e-4"
         style="fill:#3f244a;fill-opacity:1;fill-rule:nonzero;stroke:none;stroke-width:0.03527778"
         id="path94"
         inkscape:connector-curvature="0" />
      <path
         d="m 52.438005,103.41001 h -2.078214 c -0.53728,1.35114 -1.560689,2.51177 -2.855383,3.17852 -1.671461,0.86078 -3.750381,0.87948 -5.437364,0.0494 -1.243895,-0.61207 -2.250723,-1.67604 -2.829278,-2.9337 h -4.353984 c -4.162072,0 -7.877175,2.60844 -9.290756,6.52287 l -4.143728,11.47621 10.377312,2.7559 1.352197,-4.82565 2.293056,19.23063 h 12.874978 l 12.936715,-9.99526 -8.845551,-25.45891"
         style="fill:#feefcc;fill-opacity:1;fill-rule:nonzero;stroke:none;stroke-width:0.03527778"
         id="path96"
         inkscape:connector-curvature="0" />
      <path
         d="m 52.438005,103.41001 h 3.532365 c 3.998383,0 7.602361,2.41088 9.129183,6.10623 l 4.180417,10.11731 -9.895064,3.77084 -6.946901,-19.99438"
         style="fill:#feefcc;fill-opacity:1;fill-rule:nonzero;stroke:none;stroke-width:0.03527778"
         id="path98"
         inkscape:connector-curvature="0" />
      <path
         d="m 48.346841,138.86418 12.936715,-9.99526 -1.89865,-5.46453 8.366831,-3.1884 2.583392,7.52122 c 0.945092,2.75167 -0.508,5.74993 -3.253317,6.71266 l -12.589229,4.41431 -10.31875,2.76718 4.173008,-2.76718"
         style="fill:#f79484;fill-opacity:1;fill-rule:nonzero;stroke:none;stroke-width:0.03527778"
         id="path100"
         inkscape:connector-curvature="0" />
      <path
         d="m 67.751737,120.21599 -8.366831,3.1884 0.882297,2.5393 7.674681,-5.17349 -0.190147,-0.55421"
         style="fill:#3f244a;fill-opacity:1;fill-rule:nonzero;stroke:none;stroke-width:0.03527778"
         id="path102"
         inkscape:connector-curvature="0" />
      <path
         d="m 30.590476,140.19732 -1.233311,-11.93835 1.725436,-3.99733 -8.683625,-2.30646 -0.959909,3.33093 c -0.557036,1.93216 -0.488244,3.99133 0.196498,5.88222 l 3.78213,10.44152 5.172781,-1.41253"
         style="fill:#f79484;fill-opacity:1;fill-rule:nonzero;stroke:none;stroke-width:0.03527778"
         id="path104"
         inkscape:connector-curvature="0" />
      <path
         d="m 22.398976,121.95518 8.683625,2.30646 -0.86748,2.01048 -7.979481,-3.74967 0.163336,-0.56727"
         style="fill:#3f244a;fill-opacity:1;fill-rule:nonzero;stroke:none;stroke-width:0.03527778"
         id="path106"
         inkscape:connector-curvature="0" />
      <path
         d="m 55.805975,113.10293 1.402645,13.34805 c 0.121355,1.15429 -0.236714,2.30788 -0.989895,3.19053 l -7.871884,9.22267 12.936715,-9.99526 -5.477581,-15.76599"
         style="fill:#fddc6f;fill-opacity:1;fill-rule:nonzero;stroke:none;stroke-width:0.03527778"
         id="path108"
         inkscape:connector-curvature="0" />
      <path
         d="m 33.178807,119.63355 -0.967317,-8.11353 -0.802216,4.1028 c -0.410987,2.10291 0.01623,4.28343 1.190977,6.07554 v 0 l 0.578556,-2.06481"
         style="fill:#fddc6f;fill-opacity:1;fill-rule:nonzero;stroke:none;stroke-width:0.03527778"
         id="path110"
         inkscape:connector-curvature="0" />
      <path
         d="m 59.384906,123.49259 c -0.03634,0 -0.07056,-0.0229 -0.08326,-0.0593 l -4.129264,-11.88438 c -0.01588,-0.0459 0.0081,-0.0963 0.05433,-0.11218 0.04621,-0.0155 0.09631,0.008 0.112183,0.0543 l 4.129264,11.88438 c 0.01588,0.0459 -0.0081,0.0963 -0.05433,0.11218 -0.0095,0.003 -0.01905,0.005 -0.02893,0.005"
         style="fill:#3f244a;fill-opacity:1;fill-rule:nonzero;stroke:none;stroke-width:0.03527778"
         id="path112"
         inkscape:connector-curvature="0" />
      <path
         d="m 58.426761,120.79948 c -0.03528,0 -0.06914,-0.0219 -0.08255,-0.0572 -0.01693,-0.0455 0.006,-0.0963 0.05151,-0.11359 l 8.436681,-3.1817 c 0.04374,-0.0173 0.09596,0.006 0.113594,0.0515 0.01693,0.0455 -0.006,0.0963 -0.05186,0.1136 l -8.436328,3.1817 c -0.0099,0.004 -0.02046,0.006 -0.03104,0.006"
         style="fill:#3f244a;fill-opacity:1;fill-rule:nonzero;stroke:none;stroke-width:0.03527778"
         id="path114"
         inkscape:connector-curvature="0" />
      <path
         d="m 53.995167,134.58851 c -0.02611,0 -0.05256,-0.0116 -0.06985,-0.0342 -0.02963,-0.0385 -0.02258,-0.0938 0.01588,-0.12383 l 9.668228,-7.47007 c 0.03845,-0.0296 0.09349,-0.0233 0.123825,0.0159 0.02963,0.0384 0.02258,0.0938 -0.01587,0.12347 l -9.668228,7.47042 c -0.01623,0.0124 -0.03493,0.0184 -0.05398,0.0184"
         style="fill:#3f244a;fill-opacity:1;fill-rule:nonzero;stroke:none;stroke-width:0.03527778"
         id="path116"
         inkscape:connector-curvature="0" />
      <path
         d="m 34.738085,132.79816 c -0.0441,0 -0.0822,-0.0332 -0.08749,-0.078 L 32.124,111.53056 c -0.006,-0.0483 0.02858,-0.0924 0.07726,-0.0981 0.04657,-0.007 0.09172,0.0286 0.09772,0.0769 l 2.526595,21.18995 c 0.006,0.0483 -0.02858,0.0921 -0.07726,0.0981 -0.0035,3.5e-4 -0.0067,7e-4 -0.01023,7e-4"
         style="fill:#3f244a;fill-opacity:1;fill-rule:nonzero;stroke:none;stroke-width:0.03527778"
         id="path118"
         inkscape:connector-curvature="0" />
      <path
         d="m 32.21784,123.1511 c -0.0078,0 -0.01588,-0.001 -0.02364,-0.004 -0.04692,-0.0131 -0.07444,-0.0617 -0.06138,-0.10865 l 0.960967,-3.429 c 0.01305,-0.0469 0.06174,-0.0748 0.108655,-0.061 0.04692,0.0131 0.07444,0.0617 0.06138,0.10865 l -0.960613,3.429 c -0.01129,0.0388 -0.04657,0.0646 -0.08537,0.0646"
         style="fill:#3f244a;fill-opacity:1;fill-rule:nonzero;stroke:none;stroke-width:0.03527778"
         id="path120"
         inkscape:connector-curvature="0" />
      <path
         d="m 32.483482,122.20319 c -0.0071,0 -0.01446,-7.1e-4 -0.02152,-0.002 l -8.815212,-2.23873 c -0.04692,-0.012 -0.07549,-0.06 -0.0635,-0.10725 0.01199,-0.0473 0.06103,-0.0755 0.107244,-0.0635 l 8.814859,2.23838 c 0.04727,0.012 0.07585,0.06 0.0635,0.10724 -0.0099,0.0399 -0.04551,0.0663 -0.08537,0.0663"
         style="fill:#3f244a;fill-opacity:1;fill-rule:nonzero;stroke:none;stroke-width:0.03527778"
         id="path122"
         inkscape:connector-curvature="0" />
      <path
         d="m -57.666415,164.67587 h 1.734608 l 0.463903,4.15854 -1.846086,-0.99695 -0.352425,-3.16159"
         style="fill:#3f244a;fill-opacity:1;fill-rule:nonzero;stroke:none;stroke-width:0.03527778"
         id="path124"
         inkscape:connector-curvature="0" />
      <path
         d="m -55.467904,168.83441 2.946047,26.41558 h -1.734608 l -3.057525,-27.41253 1.846086,0.99695"
         style="fill:#93a2b0;fill-opacity:1;fill-rule:nonzero;stroke:none;stroke-width:0.03527778"
         id="path126"
         inkscape:connector-curvature="0" />
      <path
         d="m -70.601366,168.37263 2.997906,26.87736 h -1.734609 l -3.109383,-27.87467 1.846086,0.99731"
         style="fill:#93a2b0;fill-opacity:1;fill-rule:nonzero;stroke:none;stroke-width:0.03527778"
         id="path128"
         inkscape:connector-curvature="0" />
      <path
         d="m -72.748372,164.67587 h 1.734609 l 0.412397,3.69676 -1.846086,-0.99731 -0.30092,-2.69945"
         style="fill:#3f244a;fill-opacity:1;fill-rule:nonzero;stroke:none;stroke-width:0.03527778"
         id="path130"
         inkscape:connector-curvature="0" />
      <path
         d="m -79.275114,164.67587 h 1.734608 l -0.423333,3.79377 -1.635831,-0.88371 0.324556,-2.91006"
         style="fill:#3f244a;fill-opacity:1;fill-rule:nonzero;stroke:none;stroke-width:0.03527778"
         id="path132"
         inkscape:connector-curvature="0" />
      <path
         d="m -82.685417,195.24999 3.085747,-27.66406 1.635831,0.88371 -2.98697,26.78035 h -1.734608"
         style="fill:#93a2b0;fill-opacity:1;fill-rule:nonzero;stroke:none;stroke-width:0.03527778"
         id="path134"
         inkscape:connector-curvature="0" />
      <path
         d="m -94.357035,164.67587 h 1.734679 l -0.394829,3.53871 -1.636007,-0.88371 0.296157,-2.655"
         style="fill:#3f244a;fill-opacity:1;fill-rule:nonzero;stroke:none;stroke-width:0.03527778"
         id="path136"
         inkscape:connector-curvature="0" />
      <path
         d="m -97.767127,195.24999 3.113935,-27.91912 1.636007,0.88371 -3.015404,27.03541 h -1.734538"
         style="fill:#93a2b0;fill-opacity:1;fill-rule:nonzero;stroke:none;stroke-width:0.03527778"
         id="path138"
         inkscape:connector-curvature="0" />
      <path
         d="m -54.683326,164.67587 -3.53e-4,-7.1e-4 c -1.575153,-3.40995 -4.989337,-5.59329 -8.745715,-5.59329 h -11.479742 l -6.207125,-40.40117 -8.721373,-7.05379 h -5.52316 c -6.917756,0 -12.208476,6.16549 -11.158006,13.00303 l 5.2331,34.06176 c 0.52903,3.44276 3.490739,5.98417 6.973715,5.98417 h 39.628659"
         style="fill:#73769e;fill-opacity:1;fill-rule:nonzero;stroke:none;stroke-width:0.03527778"
         id="path140"
         inkscape:connector-curvature="0" />
      <path
         d="m -49.159884,164.67587 -3.53e-4,-7.1e-4 c -1.575859,-3.40995 -4.989689,-5.59329 -8.746067,-5.59329 h -11.479743 l -5.292019,-34.44663 c -1.150056,-7.48348 -7.588251,-13.00833 -15.159568,-13.00833 v 0 c -6.917761,0 -12.208296,6.16549 -11.157976,13.00303 l 4.649508,30.26305 c 0.370134,2.40982 2.443409,4.18888 4.881563,4.18888 h 7.241716 c 3.756378,0 7.170209,2.18334 8.746068,5.59329 v 7.1e-4 h 26.316871"
         style="fill:#3e4c78;fill-opacity:1;fill-rule:nonzero;stroke:none;stroke-width:0.03527778"
         id="path142"
         inkscape:connector-curvature="0" />
      <path
         d="m -67.215405,143.97945 -5.830359,15.10242 h 29.201888 l -5.203472,22.46175 h 14.111112 l 3.998031,-24.00374 c 0.938741,-5.63633 -3.086101,-10.89096 -8.772526,-11.45258 l -21.333532,-2.10785 h -6.171142"
         style="fill:#42729d;fill-opacity:1;fill-rule:nonzero;stroke:none;stroke-width:0.03527778"
         id="path144"
         inkscape:connector-curvature="0" />
      <path
         d="m -43.843876,159.08187 1.6637,-7.18114 -2.112433,1.89265 c -0.462844,0.41487 -0.727428,1.00718 -0.727428,1.62877 v 0 c 0,1.10385 -0.823383,2.03483 -1.919464,2.16994 l -0.870655,0.10725 -0.230364,1.38253 h 4.196644"
         style="fill:#3e4c78;fill-opacity:1;fill-rule:nonzero;stroke:none;stroke-width:0.03527778"
         id="path146"
         inkscape:connector-curvature="0" />
      <path
         d="m -36.520561,190.20319 c -0.02328,-0.0251 -0.04868,-0.0475 -0.07161,-0.0737 l -0.316795,-0.35419 c -0.760589,-0.85132 -1.09608,-2.00021 -0.912989,-3.12744 l 0.856898,-5.10424 h -6.505928 l -0.821267,4.96217 c -0.155222,0.97674 -0.472722,1.92511 -0.975431,2.77675 -0.350661,0.59503 -0.763411,1.47063 -1.065742,2.61606 h 8.005234 c 0.407106,-0.73519 1.0541,-1.32567 1.807634,-1.69541"
         style="fill:#be3955;fill-opacity:1;fill-rule:nonzero;stroke:none;stroke-width:0.03527778"
         id="path148"
         inkscape:connector-curvature="0" />
      <path
         d="m -33.149417,191.49471 -1.07703,-0.13049 c -0.878417,-0.10584 -1.688042,-0.51926 -2.294114,-1.16103 -0.753534,0.36974 -1.400528,0.96022 -1.807634,1.69541 h -8.005234 c -0.140758,0.53344 -0.259997,1.12007 -0.33408,1.7738 -0.0949,0.83895 0.5588,1.57759 1.402997,1.57759 h 15.443201 c 0,-1.91339 -1.428397,-3.52531 -3.328106,-3.75528"
         style="fill:#f89c46;fill-opacity:1;fill-rule:nonzero;stroke:none;stroke-width:0.03527778"
         id="path150"
         inkscape:connector-curvature="0" />
      <path
         d="m -43.470989,181.54362 h 6.505928 l -0.130175,0.80007 -6.713362,1.32567 0.337609,-2.12574"
         style="fill:#3f244a;fill-opacity:1;fill-rule:nonzero;stroke:none;stroke-width:0.03527778"
         id="path152"
         inkscape:connector-curvature="0" />
      <path
         d="m -54.27481,190.20319 c -0.02364,-0.0251 -0.04939,-0.0475 -0.07197,-0.0737 l -0.316795,-0.35419 c -0.760589,-0.85132 -1.09608,-2.00021 -0.912989,-3.12744 l 0.8255,-5.10424 h -6.505928 l -0.789869,4.96217 c -0.155223,0.97674 -0.472723,1.92511 -0.975431,2.77675 -0.350661,0.59503 -0.763411,1.47063 -1.065742,2.61606 h 8.005234 c 0.407106,-0.73519 1.0541,-1.32567 1.807986,-1.69541"
         style="fill:#d5555f;fill-opacity:1;fill-rule:nonzero;stroke:none;stroke-width:0.03527778"
         id="path154"
         inkscape:connector-curvature="0" />
      <path
         d="m -50.904018,191.49471 -1.07703,-0.13049 c -0.878417,-0.10584 -1.688395,-0.51926 -2.293762,-1.16103 -0.753886,0.36974 -1.40088,0.96022 -1.807986,1.69541 h -8.005234 c -0.140758,0.53344 -0.259997,1.12007 -0.33408,1.7738 -0.0949,0.83895 0.558447,1.57759 1.402997,1.57759 h 15.443201 c 0,-1.91339 -1.428397,-3.52531 -3.328106,-3.75528"
         style="fill:#fccd50;fill-opacity:1;fill-rule:nonzero;stroke:none;stroke-width:0.03527778"
         id="path156"
         inkscape:connector-curvature="0" />
      <path
         d="m -61.256988,181.54362 h 6.505928 l -0.129822,0.80007 -6.713714,1.32567 0.337608,-2.12574"
         style="fill:#3f244a;fill-opacity:1;fill-rule:nonzero;stroke:none;stroke-width:0.03527778"
         id="path158"
         inkscape:connector-curvature="0" />
      <path
         d="m -84.060898,143.97945 -1.569861,4.06612 c -2.05232,5.31636 1.871134,11.0363 7.569553,11.0363 h 17.371838 l -5.203473,22.46175 h 14.111112 l 4.069998,-24.43554 c 0.911577,-5.47405 -2.863498,-10.62426 -8.357659,-11.40284 l -12.17542,-1.72579 h -15.816088"
         style="fill:#5080b0;fill-opacity:1;fill-rule:nonzero;stroke:none;stroke-width:0.03527778"
         id="path160"
         inkscape:connector-curvature="0" />
      <path
         d="m -60.689368,159.08187 1.6637,-7.18114 -2.031295,2.01647 c -1.356783,1.34691 -1.899355,3.31224 -1.425575,5.16467 v 0 h 1.79317"
         style="fill:#3e4c78;fill-opacity:1;fill-rule:nonzero;stroke:none;stroke-width:0.03527778"
         id="path162"
         inkscape:connector-curvature="0" />
      <path
         d="m -60.689368,159.17007 h -12.356396 c -0.04868,0 -0.08819,-0.0399 -0.08819,-0.0882 0,-0.0487 0.03951,-0.0882 0.08819,-0.0882 h 12.356396 c 0.04868,0 0.08819,0.0395 0.08819,0.0882 0,0.0483 -0.03951,0.0882 -0.08819,0.0882"
         style="fill:#3f244a;fill-opacity:1;fill-rule:nonzero;stroke:none;stroke-width:0.03527778"
         id="path164"
         inkscape:connector-curvature="0" />
      <path
         d="m -65.144246,178.40104 c -0.0067,0 -0.01341,-7e-4 -0.02011,-0.002 -0.04727,-0.0109 -0.0769,-0.0582 -0.06597,-0.10548 l 6.118578,-26.41247 c 0.01094,-0.0469 0.05821,-0.0773 0.105833,-0.0656 0.04762,0.0109 0.07726,0.0582 0.06597,0.10583 l -6.118578,26.41213 c -0.0095,0.0406 -0.04586,0.0681 -0.08572,0.0681"
         style="fill:#3f244a;fill-opacity:1;fill-rule:nonzero;stroke:none;stroke-width:0.03527778"
         id="path166"
         inkscape:connector-curvature="0" />
      <path
         d="m -56.069038,145.79344 c -0.0042,0 -0.0085,-3.6e-4 -0.0127,-0.001 l -7.586486,-1.07527 c -0.04833,-0.007 -0.08185,-0.0515 -0.07479,-0.0995 0.0067,-0.0483 0.05186,-0.0822 0.09948,-0.0748 l 7.586487,1.07527 c 0.04833,0.006 0.08184,0.0512 0.07514,0.0995 -0.0063,0.0441 -0.0441,0.0759 -0.08714,0.0759"
         style="fill:#3f244a;fill-opacity:1;fill-rule:nonzero;stroke:none;stroke-width:0.03527778"
         id="path168"
         inkscape:connector-curvature="0" />
      <path
         d="m -51.315709,178.83531 c -0.0049,0 -0.0099,-3.5e-4 -0.01482,-0.001 -0.04798,-0.008 -0.08043,-0.054 -0.07232,-0.1016 l 2.695223,-16.18262 c 0.0081,-0.0483 0.05468,-0.0801 0.1016,-0.0727 0.04798,0.008 0.08043,0.0536 0.07267,0.1016 l -2.695575,16.18262 c -0.0074,0.043 -0.0448,0.0737 -0.08678,0.0737"
         style="fill:#3f244a;fill-opacity:1;fill-rule:nonzero;stroke:none;stroke-width:0.03527778"
         id="path170"
         inkscape:connector-curvature="0" />
      <path
         d="m -55.721199,120.04948 2.469445,8.20949 12.112273,14.4272 -3.240617,2.9397 -11.670242,-10.30676 c -1.672873,-1.47743 -2.8702,-3.41736 -3.440995,-5.5753 l -2.050697,-7.75405 5.820833,-1.94028"
         style="fill:#be3955;fill-opacity:1;fill-rule:nonzero;stroke:none;stroke-width:0.03527778"
         id="path172"
         inkscape:connector-curvature="0" />
      <path
         d="m -55.721199,120.04948 -5.820833,1.94028 2.050697,7.75405 c 0.01129,0.042 0.02646,0.0825 0.03775,0.12418 l 5.090231,-5.30543 -1.357842,-4.51308"
         style="fill:#3f244a;fill-opacity:1;fill-rule:nonzero;stroke:none;stroke-width:0.03527778"
         id="path174"
         inkscape:connector-curvature="0" />
      <path
         d="m -62.584138,107.38193 v 0 c 2.014009,-0.0995 3.839634,1.17793 4.435828,3.10409 l 3.500261,11.30547 -3.571875,0.81563 -2.116667,-6.08542 -2.247547,-9.13977"
         style="fill:#fccd50;fill-opacity:1;fill-rule:nonzero;stroke:none;stroke-width:0.03527778"
         id="path176"
         inkscape:connector-curvature="0" />
      <path
         d="m -60.336591,116.5217 2.116667,6.08542 3.090334,-0.70556 -6.071306,-8.89529 0.864305,3.51543"
         style="fill:#f89c46;fill-opacity:1;fill-rule:nonzero;stroke:none;stroke-width:0.03527778"
         id="path178"
         inkscape:connector-curvature="0" />
      <path
         d="m -60.316129,97.323179 c 1.372658,-1.957212 2.612319,-4.068234 3.117144,-6.404681 0.504825,-2.336448 0.186267,-4.945592 -1.304219,-6.814609 -1.490487,-1.868664 -4.284134,-2.750961 -6.40962,-1.656997 -2.617611,-1.715559 -5.756981,-2.813403 -8.674453,-1.679928 -2.91712,1.133122 -5.220759,3.7338 -5.993695,6.766631 -1.558573,6.113639 2.8575,12.714815 0.8509,18.696515 -0.825853,2.46274 -2.639484,4.44112 -4.199114,6.51898 -1.559278,2.07751 -2.952398,4.52896 -2.704395,7.11483 0.318558,3.31893 3.447345,5.90655 6.753225,6.34294 2.60597,0.34361 5.343173,-0.46179 7.347656,-2.16253 2.340681,-1.98614 3.581401,-5.00627 4.128206,-8.02675 0.546806,-3.02048 0.481895,-6.11329 0.678392,-9.17646 0.123119,-1.91664 0.359128,-3.86362 1.159228,-5.60916 0.8001,-1.745548 3.394075,-3.418067 5.250745,-3.908781"
         style="fill:#3f244a;fill-opacity:1;fill-rule:nonzero;stroke:none;stroke-width:0.03527778"
         id="path180"
         inkscape:connector-curvature="0" />
      <path
         d="m -57.11326,121.28314 -2.253192,-5.11422 -3.217686,-8.78699 -8.429625,0.41663 c -4.843992,0.23954 -8.585554,4.34517 -8.375651,9.19057 l 0.163336,3.76661 v 0 l -0.467783,9.53382 c -0.08855,1.80481 -0.465314,3.58387 -1.116189,5.26909 l -3.250848,8.4208 h 23.016635 l 1.604434,-10.67364 0.281164,-3.11962 c 0.09419,-1.0488 0.507647,-2.04399 1.184275,-2.85115 v 0 c 1.415697,-1.68874 1.749425,-4.03507 0.86113,-6.0519"
         style="fill:#fccd50;fill-opacity:1;fill-rule:nonzero;stroke:none;stroke-width:0.03527778"
         id="path182"
         inkscape:connector-curvature="0" />
      <path
         d="m -57.11326,121.37134 c -0.03387,0 -0.06632,-0.0198 -0.08079,-0.0526 l -2.253192,-5.11422 -1.771297,-4.83764 c -0.01693,-0.0459 0.0067,-0.0967 0.05221,-0.11324 0.04586,-0.0166 0.09666,0.007 0.113242,0.0526 l 1.769533,4.83235 2.251075,5.10893 c 0.0194,0.0444 -7.05e-4,0.0967 -0.04551,0.11642 -0.01129,0.005 -0.02364,0.007 -0.03528,0.007"
         style="fill:#3f244a;fill-opacity:1;fill-rule:nonzero;stroke:none;stroke-width:0.03527778"
         id="path184"
         inkscape:connector-curvature="0" />
      <path
         d="m -66.247735,127.40066 c -0.04586,0 -0.08467,-0.0353 -0.08784,-0.0818 -0.0035,-0.0483 0.03281,-0.0907 0.08149,-0.0945 1.73743,-0.12806 3.410655,-1.02799 4.475692,-2.40665 0.03034,-0.0385 0.08573,-0.0452 0.123825,-0.0159 0.03845,0.03 0.04551,0.085 0.01587,0.12382 -1.095375,1.41746 -2.815873,2.3428 -4.60234,2.47474 -0.0025,3.5e-4 -0.0046,3.5e-4 -0.0067,3.5e-4"
         style="fill:#3f244a;fill-opacity:1;fill-rule:nonzero;stroke:none;stroke-width:0.03527778"
         id="path186"
         inkscape:connector-curvature="0" />
      <path
         d="m -71.140411,101.08767 -0.220486,6.92326 1.095728,1.12537 c 1.780117,1.82809 4.85387,1.2065 5.783439,-1.16946 v 0 l -0.617361,-5.20347 -6.04132,-1.6757"
         style="fill:#d5555f;fill-opacity:1;fill-rule:nonzero;stroke:none;stroke-width:0.03527778"
         id="path188"
         inkscape:connector-curvature="0" />
      <path
         d="m -66.852749,106.36417 c 0.726016,0.11183 1.480961,-0.0166 2.141008,-0.33761 l -0.38735,-3.26319 -6.04132,-1.6757 -0.02928,0.91475 c 0.347133,0.81986 0.7366,1.62031 1.265061,2.33363 0.746478,1.00683 1.813278,1.83762 3.051881,2.02812"
         style="fill:#3f244a;fill-opacity:1;fill-rule:nonzero;stroke:none;stroke-width:0.03527778"
         id="path190"
         inkscape:connector-curvature="0" />
      <path
         d="m -59.675132,91.650864 v 3.816703 c 0,1.676753 -0.282575,3.341865 -0.835378,4.924783 v 0 c -0.846667,2.42358 -3.13302,4.04671 -5.699831,4.04671 v 0 c -1.498247,0 -2.943225,-0.55739 -4.05377,-1.56316 l -2.11843,-1.91911 c -0.857956,-0.77752 -1.468967,-1.789995 -1.756481,-2.911828 v 0 c 6.482292,-2.822222 8.775348,-7.62882 8.863542,-11.465278 4.409723,1.807986 5.600348,5.07118 5.600348,5.07118"
         style="fill:#d5555f;fill-opacity:1;fill-rule:nonzero;stroke:none;stroke-width:0.03527778"
         id="path192"
         inkscape:connector-curvature="0" />
      <path
         d="m -66.29148,91.862531 c -0.908403,0.172156 -1.630539,0.759531 -2.014714,1.527175 l 4.448175,-0.843139 c -0.638175,-0.573969 -1.525411,-0.856191 -2.433461,-0.684036"
         style="fill:#3f244a;fill-opacity:1;fill-rule:nonzero;stroke:none;stroke-width:0.03527778"
         id="path194"
         inkscape:connector-curvature="0" />
      <path
         d="m -65.184463,94.584565 c 0,0.375355 -0.304095,0.679802 -0.679803,0.679802 -0.375355,0 -0.679803,-0.304447 -0.679803,-0.679802 0,-0.375709 0.304448,-0.679803 0.679803,-0.679803 0.375708,0 0.679803,0.304094 0.679803,0.679803"
         style="fill:#3f244a;fill-opacity:1;fill-rule:nonzero;stroke:none;stroke-width:0.03527778"
         id="path196"
         inkscape:connector-curvature="0" />
      <path
         d="m -60.710182,91.862531 c 0.548569,0.172156 0.984955,0.759531 1.21673,1.527175 l -2.68605,-0.843139 c 0.385234,-0.573969 0.921103,-0.856191 1.46932,-0.684036"
         style="fill:#3f244a;fill-opacity:1;fill-rule:nonzero;stroke:none;stroke-width:0.03527778"
         id="path198"
         inkscape:connector-curvature="0" />
      <path
         d="m -61.378696,94.584565 c 0,0.375355 0.183797,0.679802 0.410633,0.679802 0.226836,0 0.410634,-0.304447 0.410634,-0.679802 0,-0.375709 -0.183798,-0.679803 -0.410634,-0.679803 -0.226836,0 -0.410633,0.304094 -0.410633,0.679803"
         style="fill:#3f244a;fill-opacity:1;fill-rule:nonzero;stroke:none;stroke-width:0.03527778"
         id="path200"
         inkscape:connector-curvature="0" />
      <path
         d="m -62.925627,98.485581 c -0.185561,0 -0.3683,-0.01834 -0.539397,-0.03563 -0.04833,-0.0049 -0.08396,-0.04798 -0.07902,-0.09631 0.0046,-0.04868 0.04868,-0.08361 0.09666,-0.07902 0.334786,0.03351 0.681567,0.06844 1.004005,-0.02611 0.281517,-0.08185 0.585964,-0.308681 0.63112,-0.630767 0.03387,-0.242005 -0.08149,-0.487186 -0.19297,-0.724253 l -0.02928,-0.06279 c -0.445206,-0.95497 -0.647347,-2.015773 -0.585611,-3.067403 0.0028,-0.04868 0.04374,-0.08643 0.09349,-0.0829 0.04833,0.0028 0.08572,0.04445 0.08255,0.09313 -0.06032,1.022703 0.136878,2.053873 0.569383,2.982737 l 0.02893,0.06209 c 0.122767,0.26035 0.249414,0.529519 0.208492,0.823736 -0.05645,0.40005 -0.420511,0.678039 -0.757061,0.775758 -0.17392,0.0508 -0.353837,0.06773 -0.531284,0.06773"
         style="fill:#3f244a;fill-opacity:1;fill-rule:nonzero;stroke:none;stroke-width:0.03527778"
         id="path202"
         inkscape:connector-curvature="0" />
      <path
         d="m -62.04968,99.571784 c -1.506714,0.198261 -3.013428,0.396523 -4.520141,0.594786 0.402519,0.86536 1.407936,1.37266 2.359025,1.29363 0.951089,-0.079 1.906764,-0.96837 2.161116,-1.888416"
         style="fill:#ffffff;fill-opacity:1;fill-rule:nonzero;stroke:none;stroke-width:0.03527778"
         id="path204"
         inkscape:connector-curvature="0" />
      <path
         d="m -78.151869,128.25897 7.9375,-1.24213 1.087614,9.26042 19.167829,-5.87975 1.116895,5.05672 -18.719802,8.53334 c -4.496858,2.04999 -9.653059,-1.03893 -9.967736,-5.97077 l -0.6223,-9.75783"
         style="fill:#d5555f;fill-opacity:1;fill-rule:nonzero;stroke:none;stroke-width:0.03527778"
         id="path206"
         inkscape:connector-curvature="0" />
      <path
         d="m -70.214369,127.01684 -7.9375,1.24213 0.207786,3.25967 7.830609,-3.64385 -0.100895,-0.85795"
         style="fill:#3f244a;fill-opacity:1;fill-rule:nonzero;stroke:none;stroke-width:0.03527778"
         id="path208"
         inkscape:connector-curvature="0" />
      <path
         d="m -69.096769,126.84186 -9.656587,1.5113 -0.13335,-1.13065 5.512154,-0.83432 c 1.691569,-0.25612 2.876197,-1.80658 2.678289,-3.50626 l -0.841023,-7.22277 c -0.194733,-1.67323 -1.15323,-3.1623 -2.595386,-4.03225 v 0 l 0.117475,0.0441 c 1.878542,0.70591 3.216628,2.38831 3.481564,4.37762 l 1.436864,10.79324"
         style="fill:#f89c46;fill-opacity:1;fill-rule:nonzero;stroke:none;stroke-width:0.03527778"
         id="path210"
         inkscape:connector-curvature="0" />
      <path
         d="m -78.753708,128.44136 c -0.04269,0 -0.08008,-0.031 -0.08678,-0.0744 -0.0078,-0.0483 0.0254,-0.0931 0.07338,-0.10089 l 9.571567,-1.4979 -1.425575,-10.70786 c -0.261055,-1.96074 -1.573742,-3.61104 -3.425119,-4.30672 l -0.117475,-0.0441 c -0.04551,-0.0169 -0.06879,-0.0677 -0.05151,-0.1136 0.01729,-0.0455 0.06809,-0.0695 0.113594,-0.0515 l 0.117123,0.0441 c 1.912761,0.71861 3.268486,2.42324 3.538361,4.44853 l 1.437217,10.79324 c 0.006,0.0473 -0.02681,0.0914 -0.07408,0.0988 l -9.656939,1.5113 c -0.0046,7e-4 -0.0088,0.001 -0.01376,0.001"
         style="fill:#3f244a;fill-opacity:1;fill-rule:nonzero;stroke:none;stroke-width:0.03527778"
         id="path212"
         inkscape:connector-curvature="0" />
      <path
         d="m -73.045764,137.56772 c -0.03775,0 -0.07267,-0.0243 -0.08431,-0.0624 -0.01411,-0.0462 0.01199,-0.0956 0.05856,-0.11007 l 20.254737,-6.21312 c 0.04657,-0.0127 0.09596,0.012 0.110067,0.0586 0.01411,0.0462 -0.01199,0.0956 -0.05856,0.11006 l -20.254738,6.21313 c -0.0085,0.002 -0.01693,0.004 -0.02575,0.004"
         style="fill:#3f244a;fill-opacity:1;fill-rule:nonzero;stroke:none;stroke-width:0.03527778"
         id="path214"
         inkscape:connector-curvature="0" />
      <path
         d="m 4.7304524,95.825284 v 8.349196 c 0,2.53294 -2.0531668,4.58611 -4.58611136,4.58611 H -0.6289479 l -0.7055556,1.11724 h -8.9958335 l 3.0575248,-4.7625 12.0032646,-9.290046"
         style="fill:#fac1a4;fill-opacity:1;fill-rule:nonzero;stroke:none;stroke-width:0.03527778"
         id="path216"
         inkscape:connector-curvature="0" />
      <path
         d="M 4.7509136,97.427601 2.678344,100.29392 v 3.08681 c 0,1.75365 -1.4213418,3.175 -3.17500022,3.175 H -6.0243316 c -1.0925528,0 -2.109964,-0.56268 -2.6913418,-1.48731 -5.7026536,-9.066041 -4.2280416,-15.925453 2.0895029,-15.005056 5.4239587,-7.849306 19.2704875,1.499306 11.3770841,7.364237"
         style="fill:#742844;fill-opacity:1;fill-rule:nonzero;stroke:none;stroke-width:0.03527778"
         id="path218"
         inkscape:connector-curvature="0" />
      <path
         d="m 3.9134191,98.58577 -1.2350751,1.70815 v 2.99861 c 0.1626305,0.49036 0.635,0.72108 0.9902473,0.61701 0.3548944,-0.10442 0.6558139,-0.46284 0.898525,-0.8696 0.3062111,-0.51258 0.5464528,-1.13065 0.6342945,-1.80975 0.087842,-0.67874 0.010936,-1.420281 -0.2592917,-1.97767 -0.269875,-0.557036 -0.5729111,-0.66675 -1.0287,-0.66675"
         style="fill:#fac1a4;fill-opacity:1;fill-rule:nonzero;stroke:none;stroke-width:0.03527778"
         id="path220"
         inkscape:connector-curvature="0" />
      <path
         d="m 3.4929079,104.02208 c -0.1001889,0 -0.2039056,-0.0198 -0.3037417,-0.0586 -0.045508,-0.0173 -0.068086,-0.0684 -0.050094,-0.11395 0.017286,-0.0455 0.068439,-0.0681 0.1139472,-0.0501 0.1326445,0.0512 0.2716389,0.06 0.390525,0.0254 0.2836334,-0.0833 0.5686778,-0.36265 0.8480779,-0.83044 0.3280833,-0.54892 0.5432778,-1.1631 0.6223,-1.77553 0.090311,-0.69673 -0.00353,-1.417457 -0.2511778,-1.927927 -0.1467556,-0.303036 -0.3044472,-0.47378 -0.511175,-0.553155 -0.045508,-0.01729 -0.068086,-0.06844 -0.0508,-0.113948 0.017286,-0.04515 0.068086,-0.06773 0.1139472,-0.05045 0.2515306,0.09666 0.4388556,0.294217 0.6071306,0.640645 0.2656417,0.548216 0.3626556,1.286935 0.2670528,2.027765 -0.082197,0.63606 -0.3055056,1.27353 -0.6459362,1.84327 -0.3069166,0.514 -0.6177139,0.81139 -0.9496778,0.90875 -0.063853,0.0191 -0.1312333,0.0282 -0.2003778,0.0282"
         style="fill:#3f244a;fill-opacity:1;fill-rule:nonzero;stroke:none;stroke-width:0.03527778"
         id="path222"
         inkscape:connector-curvature="0" />
      <path
         d="m -7.5719678,190.84344 c -0.5803195,-0.70223 -1.0361084,-1.4993 -1.3472584,-2.35578 l -0.2353028,-0.646 h -7.3279 l -0.569737,5.82083 h 10.97774 c -0.3040945,-1.0276 -0.8106834,-1.98783 -1.4975418,-2.81905"
         style="fill:#3a476c;fill-opacity:1;fill-rule:nonzero;stroke:none;stroke-width:0.03527778"
         id="path224"
         inkscape:connector-curvature="0" />
      <path
         d="m -6.074426,193.66249 h -10.97774 l -0.155222,1.5875 h 11.463162 l -0.1128889,-0.66241 c -0.053269,-0.31365 -0.1277056,-0.62205 -0.2173111,-0.92509"
         style="fill:#ffffff;fill-opacity:1;fill-rule:nonzero;stroke:none;stroke-width:0.03527778"
         id="path226"
         inkscape:connector-curvature="0" />
      <path
         d="m -9.154529,187.84166 h -7.3279 l -0.219781,2.24441 z"
         style="fill:#3f244a;fill-opacity:1;fill-rule:nonzero;stroke:none;stroke-width:0.03527778"
         id="path228"
         inkscape:connector-curvature="0" />
      <path
         d="m -2.9114203,152.32865 -2.8222224,35.51301 H -18.667182 l 2.76613,-28.57493 12.9896317,-6.93808"
         style="fill:#ae2b55;fill-opacity:1;fill-rule:nonzero;stroke:none;stroke-width:0.03527778"
         id="path230"
         inkscape:connector-curvature="0" />
      <path
         d="m -4.3225315,170.08501 -12.2812535,-3.56094 0.702733,-7.25734 12.9896317,-6.93808 -1.4111112,17.75636"
         style="fill:#472042;fill-opacity:1;fill-rule:nonzero;stroke:none;stroke-width:0.03527778"
         id="path232"
         inkscape:connector-curvature="0" />
      <path
         d="m 15.442198,191.23644 v 0 c -1.238603,-0.60286 -2.266951,-1.56489 -2.950281,-2.76116 l -0.36195,-0.63362 H 5.5446636 l -1.2474223,5.82083 H 18.177989 c -0.672394,-1.03187 -1.609725,-1.87745 -2.735791,-2.42605"
         style="fill:#3a476c;fill-opacity:1;fill-rule:nonzero;stroke:none;stroke-width:0.03527778"
         id="path234"
         inkscape:connector-curvature="0" />
      <path
         d="M 18.177989,193.66249 H 4.2972413 l -0.3400778,1.5875 H 18.95022 l -0.02081,-0.0602 c -0.184855,-0.54433 -0.443089,-1.05336 -0.751417,-1.52728"
         style="fill:#ffffff;fill-opacity:1;fill-rule:nonzero;stroke:none;stroke-width:0.03527778"
         id="path236"
         inkscape:connector-curvature="0" />
      <path
         d="M 12.129967,187.84166 H 5.5446636 l -0.4808361,2.24441 z"
         style="fill:#3f244a;fill-opacity:1;fill-rule:nonzero;stroke:none;stroke-width:0.03527778"
         id="path238"
         inkscape:connector-curvature="0" />
      <path
         d="m -2.1540063,143.97945 14.0663093,6.22406 c 2.877608,1.27282 4.636559,4.22487 4.387497,7.36142 l -2.405944,30.27673 H 0.95996331 L 3.7264468,159.26673 -4.5712398,158.33857 H -25.185458 v -14.35912 h 23.0314517"
         style="fill:#ae2b55;fill-opacity:1;fill-rule:nonzero;stroke:none;stroke-width:0.03527778"
         id="path240"
         inkscape:connector-curvature="0" />
      <path
         d="m 3.7264468,159.26673 h 9.0501622 l -0.564092,0.41769 c -2.4899059,1.84397 -5.7097089,2.39183 -8.6691619,1.47461 v 0 l 0.1830917,-1.8923"
         style="fill:#472042;fill-opacity:1;fill-rule:nonzero;stroke:none;stroke-width:0.03527778"
         id="path242"
         inkscape:connector-curvature="0" />
      <path
         d="M 12.776609,184.40207 H 2.4871384 c -0.048683,0 -0.088194,-0.0394 -0.088194,-0.0882 0,-0.0487 0.039511,-0.0882 0.088194,-0.0882 H 12.776609 c 0.04868,0 0.08819,0.0395 0.08819,0.0882 0,0.0488 -0.03951,0.0882 -0.08819,0.0882"
         style="fill:#3f244a;fill-opacity:1;fill-rule:nonzero;stroke:none;stroke-width:0.03527778"
         id="path244"
         inkscape:connector-curvature="0" />
      <path
         d="M -6.7626955,184.40207 H -17.052166 c -0.04868,0 -0.08819,-0.0394 -0.08819,-0.0882 0,-0.0487 0.03951,-0.0882 0.08819,-0.0882 h 10.2894705 c 0.048683,0 0.088194,0.0395 0.088194,0.0882 0,0.0488 -0.039511,0.0882 -0.088194,0.0882"
         style="fill:#3f244a;fill-opacity:1;fill-rule:nonzero;stroke:none;stroke-width:0.03527778"
         id="path246"
         inkscape:connector-curvature="0" />
      <path
         d="m 12.129967,186.4599 c -0.0025,0 -0.0053,0 -0.0074,-4.3e-4 -0.04868,-0.004 -0.08467,-0.0473 -0.08043,-0.0952 l 2.175228,-24.77661 c 0.0042,-0.0487 0.04621,-0.0864 0.09525,-0.0801 0.04868,0.004 0.08467,0.0469 0.08043,0.0953 l -2.175228,24.77633 c -0.0042,0.0462 -0.04233,0.0807 -0.08784,0.0807"
         style="fill:#3f244a;fill-opacity:1;fill-rule:nonzero;stroke:none;stroke-width:0.03527778"
         id="path248"
         inkscape:connector-curvature="0" />
      <path
         d="m 21.992929,118.90295 -3.160184,-5.61516 v 0 c 0.67945,-0.31362 1.484489,-0.14112 1.976261,0.42298 l 0.963436,1.10595 0.220487,4.08623"
         style="fill:#f79484;fill-opacity:1;fill-rule:nonzero;stroke:none;stroke-width:0.03527778"
         id="path250"
         inkscape:connector-curvature="0" />
      <path
         d="m 20.581817,120.79913 1.411112,-1.89618 -0.705556,-4.14514 c -0.06597,-3.28295 1.359606,-5.00168 2.092325,-5.66596 0.227542,-0.20638 0.563739,-0.2339 0.817739,-0.0607 l 0.0081,0.005 c 0.303389,0.20673 0.371122,0.6163 0.167569,0.92181 -1.082322,1.62137 -1.189566,3.30023 -1.189566,3.30023 0.826911,-1.68521 2.088797,-2.68252 2.728736,-3.10797 0.232833,-0.15451 0.535517,-0.14252 0.758119,0.0261 l 1.96215,1.4866 c 0.299156,0.22684 0.349251,0.65793 0.106187,0.94439 -1.008592,1.18851 -1.542345,2.85574 -1.542345,2.85574 0.705556,2.77812 -0.617361,4.6302 -1.190625,4.93889 l -2.293056,3.66006 -3.130903,-3.26319"
         style="fill:#fac1a4;fill-opacity:1;fill-rule:nonzero;stroke:none;stroke-width:0.03527778"
         id="path252"
         inkscape:connector-curvature="0" />
      <path
         d="m -26.205691,118.28559 v 0 c 1.255536,-5.5693 6.202186,-9.525 11.910837,-9.525 h 11.9094254 c 4.8976142,0 9.3031034,2.97744 11.1294341,7.52193 l 4.5617695,11.35168 6.585303,-7.64364 c 4.703587,0.23531 5.526617,5.05672 5.526617,5.05672 l -9.044517,11.55665 c -2.619728,3.34786 -7.8605948,2.70722 -9.5969671,-1.17334 l -4.0537697,-9.06039 -3.7041669,19.13819 c -5.5855309,3.29248 -21.9314903,2.46945 -25.2239653,0.70556 v -27.92836"
         style="fill:#51adbf;fill-opacity:1;fill-rule:nonzero;stroke:none;stroke-width:0.03527778"
         id="path254"
         inkscape:connector-curvature="0" />
      <path
         d="m 2.7224412,126.3702 1.6608779,-8.58238 0.3471333,13.07006 z"
         style="fill:#2e819d;fill-opacity:1;fill-rule:nonzero;stroke:none;stroke-width:0.03527778"
         id="path256"
         inkscape:connector-curvature="0" />
      <path
         d="m 13.305775,127.6342 2.039761,5.07577 0.194734,-2.69064 c 0.09313,-1.28799 -0.390878,-2.55023 -1.3208,-3.44558 v 0 l -0.913695,1.06045"
         style="fill:#2e819d;fill-opacity:1;fill-rule:nonzero;stroke:none;stroke-width:0.03527778"
         id="path258"
         inkscape:connector-curvature="0" />
      <path
         d="m 24.742479,113.85047 c -0.01411,0 -0.02822,-0.004 -0.04127,-0.0106 -0.04304,-0.0226 -0.05927,-0.0758 -0.03669,-0.11888 0.561975,-1.06151 1.35643,-2.01683 2.297289,-2.76261 0.0381,-0.0296 0.09349,-0.0243 0.124178,0.0145 0.02963,0.0381 0.02364,0.0935 -0.01446,0.12382 -0.922161,0.73061 -1.700389,1.66688 -2.251075,2.70687 -0.01588,0.0296 -0.04621,0.0469 -0.07796,0.0469"
         style="fill:#3f244a;fill-opacity:1;fill-rule:nonzero;stroke:none;stroke-width:0.03527778"
         id="path260"
         inkscape:connector-curvature="0" />
      <path
         d="m 26.218148,114.24558 c -0.01552,0 -0.0314,-0.004 -0.04586,-0.0127 -0.04163,-0.025 -0.05503,-0.0794 -0.02963,-0.12101 0.477661,-0.78951 1.065036,-1.506 1.74625,-2.12866 0.03563,-0.0324 0.09172,-0.0303 0.12453,0.006 0.03281,0.036 0.03034,0.0917 -0.0053,0.12453 -0.668867,0.61136 -1.245306,1.31445 -1.714853,2.08985 -0.01623,0.0272 -0.04551,0.0423 -0.07514,0.0423"
         style="fill:#3f244a;fill-opacity:1;fill-rule:nonzero;stroke:none;stroke-width:0.03527778"
         id="path262"
         inkscape:connector-curvature="0" />
      <path
         d="m 21.449298,119.72175 c -0.01835,0 -0.03704,-0.006 -0.05256,-0.0173 -0.03916,-0.0293 -0.04727,-0.0843 -0.01799,-0.12347 l 0.5207,-0.70027 -0.536927,-3.15771 c -0.0085,-0.048 0.02399,-0.0935 0.07197,-0.1016 0.05151,-0.009 0.09384,0.024 0.1016,0.072 l 0.543631,3.19475 c 0.0042,0.0236 -0.0018,0.048 -0.01623,0.0674 l -0.543631,0.73096 c -0.01729,0.0233 -0.04374,0.0353 -0.07056,0.0353"
         style="fill:#3f244a;fill-opacity:1;fill-rule:nonzero;stroke:none;stroke-width:0.03527778"
         id="path264"
         inkscape:connector-curvature="0" />
      <path
         d="m -0.14670065,141.28353 c -0.005644,0 -0.0112889,-3.6e-4 -0.0169333,-0.001 -0.0479778,-0.01 -0.0790222,-0.0557 -0.06985,-0.10336 L 4.2968885,117.77124 c 0.00917,-0.0483 0.055739,-0.079 0.1033639,-0.0702 0.047978,0.01 0.079022,0.0557 0.06985,0.10336 l -4.53037249,23.40786 c -0.0084667,0.042 -0.04515555,0.0713 -0.08643056,0.0713"
         style="fill:#3f244a;fill-opacity:1;fill-rule:nonzero;stroke:none;stroke-width:0.03527778"
         id="path266"
         inkscape:connector-curvature="0" />
      <path
         d="m 15.345536,132.79816 c -0.03457,0 -0.06773,-0.0212 -0.08184,-0.0557 l -5.5484932,-13.8067 c -0.018344,-0.0452 0.00388,-0.0967 0.048683,-0.11465 0.045508,-0.0183 0.096661,0.004 0.1150056,0.049 l 5.5488426,13.80702 c 0.01764,0.0452 -0.0039,0.0963 -0.04939,0.11465 -0.01058,0.004 -0.02187,0.006 -0.03281,0.006"
         style="fill:#3f244a;fill-opacity:1;fill-rule:nonzero;stroke:none;stroke-width:0.03527778"
         id="path268"
         inkscape:connector-curvature="0" />
      <path
         d="m 13.305775,127.72239 c -0.02046,0 -0.04092,-0.007 -0.0575,-0.0215 -0.03704,-0.0318 -0.04092,-0.0875 -0.0092,-0.12418 l 3.864681,-4.48593 c 0.03175,-0.0367 0.08784,-0.0409 0.124178,-0.009 0.03704,0.0318 0.04092,0.0875 0.0095,0.12418 l -3.865034,4.48592 c -0.01729,0.0205 -0.04198,0.0307 -0.06668,0.0307"
         style="fill:#3f244a;fill-opacity:1;fill-rule:nonzero;stroke:none;stroke-width:0.03527778"
         id="path270"
         inkscape:connector-curvature="0" />
      <path
         d="m -7.1676844,143.72581 c -0.00847,0 -0.016933,-0.001 -0.025047,-0.004 -2.5759835,-0.774 -4.9614676,-2.16888 -6.8992756,-4.03402 -0.03492,-0.0339 -0.03598,-0.0896 -0.0021,-0.12488 0.03387,-0.0346 0.08961,-0.0353 0.124531,-0.002 1.917347,1.84538 4.2784892,3.2258 6.8273088,3.99168 0.046567,0.0138 0.073378,0.0631 0.059267,0.11006 -0.011642,0.0377 -0.046567,0.0624 -0.084667,0.0624"
         style="fill:#3f244a;fill-opacity:1;fill-rule:nonzero;stroke:none;stroke-width:0.03527778"
         id="path272"
         inkscape:connector-curvature="0" />
      <path
         d="m -9.3083401,118.55582 c -0.036689,0 -0.070556,-0.0226 -0.083256,-0.0593 -0.016228,-0.0459 0.00847,-0.096 0.054328,-0.11218 l 3.4060697,-1.1871 c 0.046214,-0.0169 0.096308,0.008 0.1121833,0.054 0.016228,0.0459 -0.00811,0.0963 -0.053975,0.11219 l -3.4064224,1.18745 c -0.00953,0.004 -0.019403,0.005 -0.028928,0.005"
         style="fill:#3f244a;fill-opacity:1;fill-rule:nonzero;stroke:none;stroke-width:0.03527778"
         id="path274"
         inkscape:connector-curvature="0" />
      <path
         d="m -1.2078563,163.08202 c -0.4434417,-3.1242 -3.1146752,-5.44901 -6.2702726,-5.45712 l -1.7984612,-0.005 c -1.3458469,-0.004 -2.5018999,-0.95673 -2.7615449,-2.27753 l -5.814483,-29.55679 c -1.703917,-8.6621 -9.29887,-14.90839 -18.127135,-14.90839 v 0 h -5.852231 l 0.932745,0.93275 c -5.804606,2.28882 -9.526059,8.49207 -8.233834,15.06044 l 6.148917,31.25752 c 0.748594,3.80471 4.084108,6.54791 7.961489,6.54791 h 34.0409413 l -0.2261306,-1.59385"
         style="fill:#3e4c78;fill-opacity:1;fill-rule:nonzero;stroke:none;stroke-width:0.03527778"
         id="path276"
         inkscape:connector-curvature="0" />
      <path
         d="m -48.836387,158.12796 -6.14927,-31.25752 c -1.629481,-8.28358 4.711348,-15.99319 13.153673,-15.99319 v 0 c 8.828265,0 16.422865,6.24629 18.126782,14.90839 l 6.3627,32.34232 c 0.748242,3.80471 4.083756,6.54791 7.9611369,6.54791 h 0.28575 -31.7796349 c -3.877381,0 -7.212895,-2.7432 -7.961137,-6.54791"
         style="fill:#73769e;fill-opacity:1;fill-rule:nonzero;stroke:none;stroke-width:0.03527778"
         id="path278"
         inkscape:connector-curvature="0" />
      <path
         d="m -39.140642,164.67587 h -1.734608 l -0.46355,4.15854 1.845733,-0.9973 0.352425,-3.16124"
         style="fill:#3f244a;fill-opacity:1;fill-rule:nonzero;stroke:none;stroke-width:0.03527778"
         id="path280"
         inkscape:connector-curvature="0" />
      <path
         d="m -41.3388,168.83441 -2.946401,26.41558 h 1.734609 l 3.057525,-27.41288 -1.845733,0.9973"
         style="fill:#93a2b0;fill-opacity:1;fill-rule:nonzero;stroke:none;stroke-width:0.03527778"
         id="path282"
         inkscape:connector-curvature="0" />
      <path
         d="m -26.205691,168.37263 -2.997906,26.87736 h 1.734609 l 3.10903,-27.87467 -1.845733,0.99731"
         style="fill:#93a2b0;fill-opacity:1;fill-rule:nonzero;stroke:none;stroke-width:0.03527778"
         id="path284"
         inkscape:connector-curvature="0" />
      <path
         d="m -24.058685,164.67587 h -1.734609 l -0.412397,3.69676 1.845733,-0.99731 0.301273,-2.69945"
         style="fill:#3f244a;fill-opacity:1;fill-rule:nonzero;stroke:none;stroke-width:0.03527778"
         id="path286"
         inkscape:connector-curvature="0" />
      <path
         d="m -17.531943,164.67587 h -1.734609 l 0.423334,3.79377 1.63583,-0.88371 -0.324555,-2.91006"
         style="fill:#3f244a;fill-opacity:1;fill-rule:nonzero;stroke:none;stroke-width:0.03527778"
         id="path288"
         inkscape:connector-curvature="0" />
      <path
         d="m -14.12164,195.24999 -3.085748,-27.66406 -1.63583,0.88371 2.986969,26.78035 h 1.734609"
         style="fill:#93a2b0;fill-opacity:1;fill-rule:nonzero;stroke:none;stroke-width:0.03527778"
         id="path290"
         inkscape:connector-curvature="0" />
      <path
         d="m -2.4499869,164.67587 h -1.7346084 l 0.3947583,3.53871 1.6358307,-0.88371 -0.2959806,-2.655"
         style="fill:#3f244a;fill-opacity:1;fill-rule:nonzero;stroke:none;stroke-width:0.03527778"
         id="path292"
         inkscape:connector-curvature="0" />
      <path
         d="m 0.95996331,195.24999 -3.11396961,-27.91912 -1.6358307,0.88371 3.01519187,27.03541 h 1.73460844"
         style="fill:#93a2b0;fill-opacity:1;fill-rule:nonzero;stroke:none;stroke-width:0.03527778"
         id="path294"
         inkscape:connector-curvature="0" />
      <path
         d="m 88.213555,113.39926 3.130903,-4.01002 c 0.7874,-1.00895 1.996369,-1.59879 3.2766,-1.59879 l -0.685094,-0.121 c -0.502709,-0.0885 -0.918634,-0.44203 -1.086909,-0.92393 l -1.799872,-5.15055 -5.306484,2.81481 0.776817,4.09081 c 0.06773,0.3556 -0.0042,0.72355 -0.200025,1.02799 l -3.242734,5.03097 0.06103,0.0293 c 1.761067,0.84526 3.8735,0.35031 5.075767,-1.18957"
         style="fill:#fac1a4;fill-opacity:1;fill-rule:nonzero;stroke:none;stroke-width:0.03527778"
         id="path296"
         inkscape:connector-curvature="0" />
      <path
         d="m 98.560528,146.77804 -3.93947,-38.98759 c -1.280231,0 -2.4892,0.58984 -3.2766,1.59879 l -3.130903,4.01002 c -1.202267,1.53988 -3.3147,2.03483 -5.075767,1.18957 l -0.06103,-0.0293 -5.273322,8.18092 c -0.688975,1.06962 -0.776817,2.44192 -0.156986,3.55282 0.307269,0.55104 0.677333,1.01353 1.059744,1.39735 1.443567,1.44922 2.018948,3.55177 1.637242,5.56119 l -1.479903,7.78793 19.696996,5.73828"
         style="fill:#f46a9a;fill-opacity:1;fill-rule:nonzero;stroke:none;stroke-width:0.03527778"
         id="path298"
         inkscape:connector-curvature="0" />
      <path
         d="m 86.241527,107.03692 c 4.280959,-1.35432 4.951942,-4.03684 4.807656,-5.44195 l -5.306484,2.81481 0.498828,2.62714"
         style="fill:#3f244a;fill-opacity:1;fill-rule:nonzero;stroke:none;stroke-width:0.03527778"
         id="path300"
         inkscape:connector-curvature="0" />
      <path
         d="m 92.367161,115.67539 -0.618067,17.59585 c -0.07126,2.03341 -1.7018,3.66677 -3.735211,3.74156 l -8.44409,0.3108 -0.706261,3.71616 19.696996,5.73828 -3.142545,-31.10265 h -3.050822"
         style="fill:#f14984;fill-opacity:1;fill-rule:nonzero;stroke:none;stroke-width:0.03527778"
         id="path302"
         inkscape:connector-curvature="0" />
      <path
         d="m 86.811263,128.93101 c -0.0071,0 -0.01446,-10e-4 -0.02152,-0.003 -1.758598,-0.44732 -3.376437,-1.54728 -4.439003,-3.01766 -0.02822,-0.0395 -0.01976,-0.0945 0.01976,-0.12312 0.03916,-0.0289 0.09419,-0.0198 0.123472,0.0198 1.038578,1.43757 2.620081,2.51284 4.339167,2.95028 0.04727,0.012 0.07585,0.06 0.0635,0.1069 -0.0099,0.0402 -0.04586,0.0667 -0.08537,0.0667"
         style="fill:#3f244a;fill-opacity:1;fill-rule:nonzero;stroke:none;stroke-width:0.03527778"
         id="path304"
         inkscape:connector-curvature="0" />
      <path
         d="m 96.290755,89.139086 c 0.881592,-3.418769 4.145495,-6.07695 7.671855,-6.248047 1.30599,-0.0635 2.70934,0.229305 3.62162,1.16593 0.77223,0.791987 1.08303,1.928637 1.1811,3.030009 0.17322,1.952272 -0.23142,3.905956 -0.67345,5.815189 -0.44274,1.909234 -0.92851,3.832931 -0.9211,5.792612 0.008,1.959681 0.56867,3.999791 1.95156,5.388331 -3.60186,0.60042 -7.38752,-1.19133 -9.540168,-4.140909 -2.15265,-2.949222 -4.202994,-7.267223 -3.291417,-10.803115"
         style="fill:#f79447;fill-opacity:1;fill-rule:nonzero;stroke:none;stroke-width:0.03527778"
         id="path306"
         inkscape:connector-curvature="0" />
      <path
         d="M 81.84768,97.015556 C 80.606254,95.65842 79.811799,93.89947 79.614243,92.07067 c -0.13088,-1.209675 0.0011,-2.464859 0.51047,-3.570111 0.510116,-1.1049 1.419578,-2.046817 2.559403,-2.472267 1.14053,-0.42545 2.50578,-0.285045 3.462514,0.467078 1.76918,-1.074562 3.951464,-1.356431 5.968295,-0.891117 2.01683,0.465314 3.834342,1.743781 4.954058,3.484739 1.387828,2.157942 1.661936,4.934303 0.978959,7.407275 -0.653698,2.365376 -2.283531,4.580823 -4.609748,5.362933 -2.00025,0.67239 -4.243917,0.20531 -6.107289,-0.78599 -1.863725,-0.99131 -4.058356,-2.500492 -5.483225,-4.057654"
         style="fill:#f79447;fill-opacity:1;fill-rule:nonzero;stroke:none;stroke-width:0.03527778"
         id="path308"
         inkscape:connector-curvature="0" />
      <path
         d="m 93.438194,101.94739 c -0.03669,0 -0.07126,-0.0233 -0.08361,-0.0603 -0.01552,-0.0462 0.0095,-0.096 0.05539,-0.11148 2.100086,-0.70591 3.84422,-2.737911 4.55295,-5.302606 0.705556,-2.554111 0.343606,-5.296606 -0.968022,-7.336014 -1.111603,-1.728611 -2.897364,-2.984853 -4.899731,-3.446639 -0.04727,-0.01129 -0.07691,-0.05856 -0.06597,-0.105834 0.01129,-0.04762 0.05715,-0.0769 0.105833,-0.06632 2.046464,0.47237 3.872089,1.756481 5.008034,3.523192 1.338439,2.081036 1.708502,4.8768 0.989894,7.478537 -0.724253,2.620433 -2.512131,4.698644 -4.666192,5.422544 -0.0095,0.003 -0.01905,0.005 -0.02858,0.005"
         style="fill:#3f244a;fill-opacity:1;fill-rule:nonzero;stroke:none;stroke-width:0.03527778"
         id="path310"
         inkscape:connector-curvature="0" />
      <path
         d="m 84.331588,90.533617 v 0 c -1.782939,1.432278 -2.99332,3.455811 -3.411714,5.704417 l -0.174625,0.9398 -1.940278,3.116086 h 2.057753 l 0.290336,3.05012 c 0.110067,1.15358 0.874889,2.13995 1.963914,2.53435 v 0 c 0.732014,0.26459 1.538111,0.23425 2.248253,-0.0847 l 3.976864,-1.78753 c 0.886883,-0.39828 1.457325,-1.28023 1.457325,-2.25248 v -1.871491 c -0.692855,-0.299156 -1.618544,-0.807861 -1.930753,-1.49472 -0.311503,-0.687211 -0.358069,-1.490839 -0.127705,-2.209447 -1.932517,-1.209675 -3.627967,-3.502378 -4.40937,-5.644445"
         style="fill:#fac1a4;fill-opacity:1;fill-rule:nonzero;stroke:none;stroke-width:0.03527778"
         id="path312"
         inkscape:connector-curvature="0" />
      <path
         d="m 91.745919,97.69289 c 0.360892,-0.191206 0.774347,-0.304447 1.179336,-0.253295 0.405695,0.05115 0.798689,0.283281 0.983545,0.648053 0.179211,0.353483 0.146755,0.776464 0.06103,1.163461 -0.145697,0.659695 -0.434269,1.286931 -0.840316,1.826331 -0.294923,0.39264 -0.663928,0.74683 -1.12007,0.92886 -0.456142,0.18239 -1.010356,0.16757 -1.405467,-0.12453 -0.672747,-0.49706 -0.464608,-1.50107 -0.318558,-2.195686 0.175683,-0.834319 0.700264,-1.590322 1.4605,-1.993194"
         style="fill:#fac1a4;fill-opacity:1;fill-rule:nonzero;stroke:none;stroke-width:0.03527778"
         id="path314"
         inkscape:connector-curvature="0" />
      <path
         d="m 91.393494,101.42034 c -0.103364,0 -0.251531,-0.0183 -0.370064,-0.10583 -0.31115,-0.23001 -0.1524,-0.98425 -0.04763,-1.483434 0.138642,-0.656519 0.549981,-1.223081 1.100314,-1.514828 0.226483,-0.119944 0.451556,-0.183092 0.651228,-0.183092 0.03634,0 0.07338,0.0018 0.109361,0.0067 0.19685,0.02434 0.37465,0.131939 0.443089,0.267053 0.07126,0.140758 0.07161,0.373592 0.0014,0.691797 -0.123472,0.559506 -0.371122,1.097144 -0.715433,1.554694 -0.264584,0.35207 -0.53975,0.58667 -0.818445,0.6978 -0.112889,0.0451 -0.235303,0.0691 -0.353836,0.0691"
         style="fill:#f79484;fill-opacity:1;fill-rule:nonzero;stroke:none;stroke-width:0.03527778"
         id="path316"
         inkscape:connector-curvature="0" />
      <path
         d="m 83.942121,95.080923 c 0.804334,0.152047 1.443567,0.672042 1.783292,1.351844 L 81.78806,95.68629 c 0.564797,-0.508 1.350081,-0.757767 2.154061,-0.605367"
         style="fill:#3f244a;fill-opacity:1;fill-rule:nonzero;stroke:none;stroke-width:0.03527778"
         id="path318"
         inkscape:connector-curvature="0" />
      <path
         d="m 82.962105,97.490395 c 0,0.332317 0.269522,0.601839 0.601839,0.601839 0.332316,0 0.601486,-0.269522 0.601486,-0.601839 0,-0.332316 -0.26917,-0.601839 -0.601486,-0.601839 -0.332317,0 -0.601839,0.269523 -0.601839,0.601839"
         style="fill:#3f244a;fill-opacity:1;fill-rule:nonzero;stroke:none;stroke-width:0.03527778"
         id="path320"
         inkscape:connector-curvature="0" />
      <path
         d="m 85.15356,102.00454 c -1.158169,-0.25964 -2.373489,-0.25964 -3.532011,-3.5e-4 0.08431,0.39052 0.453319,0.77964 0.785283,1.00189 0.331964,0.22225 0.751417,0.30974 1.144764,0.23883 0.601486,-0.10831 1.172634,-0.80504 1.601964,-1.24037"
         style="fill:#ffffff;fill-opacity:1;fill-rule:nonzero;stroke:none;stroke-width:0.03527778"
         id="path322"
         inkscape:connector-curvature="0" />
      <path
         d="m 72.094432,139.06773 23.121762,6.73594 c 3.97757,1.15852 7.904336,-1.96886 7.664446,-6.10517 l -0.69532,-11.98563 -8.093429,1.15605 0.617362,10.36285 -17.015532,-2.14489 c -1.4351,-0.18097 -2.887486,0.16298 -4.088695,0.96838 l -1.510594,1.01247"
         style="fill:#fac1a4;fill-opacity:1;fill-rule:nonzero;stroke:none;stroke-width:0.03527778"
         id="path324"
         inkscape:connector-curvature="0" />
      <path
         d="m 94.091891,128.86892 8.093429,-1.15605 0.18168,3.12843 c -3.483328,0.84984 -8.171745,-0.23883 -8.171745,-0.23883 l -0.103364,-1.73355"
         style="fill:#3f244a;fill-opacity:1;fill-rule:nonzero;stroke:none;stroke-width:0.03527778"
         id="path326"
         inkscape:connector-curvature="0" />
      <path
         d="m 94.621058,107.79045 v 0 c 3.537656,0 6.532382,2.61126 7.013572,6.11611 l 1.98226,14.4332 c -4.056943,1.85208 -10.283118,1.76388 -10.283118,1.76388 l -0.966611,-14.42825 c -0.180975,-2.70828 0.553508,-5.39892 2.085622,-7.63941 l 0.168275,-0.24553"
         style="fill:#f46a9a;fill-opacity:1;fill-rule:nonzero;stroke:none;stroke-width:0.03527778"
         id="path328"
         inkscape:connector-curvature="0" />
      <path
         d="m 93.186311,127.98874 c -0.04621,0 -0.08502,-0.036 -0.08784,-0.0826 l -0.81915,-12.22481 c -0.09913,-1.47673 0.0695,-2.94358 0.499886,-4.35998 0.01446,-0.0469 0.06526,-0.0727 0.110067,-0.0589 0.04692,0.0141 0.07303,0.0635 0.05891,0.11006 -0.424392,1.39595 -0.590197,2.84163 -0.493184,4.29684 l 0.81915,12.22516 c 0.0032,0.0483 -0.03351,0.0907 -0.0822,0.0938 -0.0021,0 -0.0039,3.5e-4 -0.0056,3.5e-4"
         style="fill:#3f244a;fill-opacity:1;fill-rule:nonzero;stroke:none;stroke-width:0.03527778"
         id="path330"
         inkscape:connector-curvature="0" />
      <path
         d="m 103.22249,125.55528 c -0.0434,0 -0.0815,-0.0321 -0.0875,-0.0762 l -1.58786,-11.56018 c -0.007,-0.0483 0.0272,-0.0931 0.0755,-0.0995 0.0519,-0.006 0.0928,0.0272 0.0995,0.0751 l 1.58786,11.56053 c 0.006,0.048 -0.0272,0.0928 -0.0755,0.0991 -0.004,7.1e-4 -0.008,0.001 -0.012,0.001"
         style="fill:#3f244a;fill-opacity:1;fill-rule:nonzero;stroke:none;stroke-width:0.03527778"
         id="path332"
         inkscape:connector-curvature="0" />
      <path
         d="m 97.837686,139.71437 c -0.0035,0 -0.0071,-3.5e-4 -0.01094,-7.1e-4 L 80.99607,137.59241 c -0.04833,-0.006 -0.08255,-0.0505 -0.07655,-0.0988 0.006,-0.0476 0.04551,-0.0825 0.09842,-0.0765 l 16.830676,2.12161 c 0.04833,0.006 0.0829,0.0504 0.07655,0.0984 -0.0053,0.0444 -0.04374,0.0773 -0.08749,0.0773"
         style="fill:#3f244a;fill-opacity:1;fill-rule:nonzero;stroke:none;stroke-width:0.03527778"
         id="path334"
         inkscape:connector-curvature="0" />
      <path
         d="m 96.870722,128.03496 c -0.04233,0 -0.07973,-0.0303 -0.08678,-0.0734 -0.0085,-0.048 0.02364,-0.0935 0.07161,-0.1016 1.108075,-0.19191 2.160764,-0.66076 3.044472,-1.35643 0.0381,-0.03 0.09349,-0.0233 0.123476,0.0148 0.0303,0.0385 0.0236,0.0938 -0.0148,0.12383 -0.906287,0.71332 -1.986139,1.1945 -3.122789,1.39135 -0.0053,0.001 -0.01023,0.001 -0.01517,0.001"
         style="fill:#3f244a;fill-opacity:1;fill-rule:nonzero;stroke:none;stroke-width:0.03527778"
         id="path336"
         inkscape:connector-curvature="0" />
      <path
         d="m 45.832241,178.94785 0.760589,-3.20922 2.170995,-5.34282 -5.882923,-2.39042 -1.182511,2.91006 c -0.529872,1.30457 -1.581856,2.31034 -2.880784,2.79753 0.262467,0.8068 0.37077,1.66405 0.30727,2.51001 l 6.707364,2.72486"
         style="fill:#fac1a4;fill-opacity:1;fill-rule:nonzero;stroke:none;stroke-width:0.03527778"
         id="path338"
         inkscape:connector-curvature="0" />
      <path
         d="m 39.124877,176.22299 c 0.0635,-0.84596 -0.0448,-1.70321 -0.30727,-2.51001 -0.218369,0.0822 -0.441325,0.15346 -0.672041,0.20426 L 37.593468,174.04 c -0.703791,0.15593 -1.433336,0.15805 -2.137833,0.006 l -0.891822,-0.19226 c -1.855259,-0.3997 -3.777192,0.28399 -4.962878,1.76636 l 15.524692,6.30735 0.706614,-2.97995 -6.707364,-2.72486"
         style="fill:#f46a9a;fill-opacity:1;fill-rule:nonzero;stroke:none;stroke-width:0.03527778"
         id="path340"
         inkscape:connector-curvature="0" />
      <path
         d="m 42.880902,168.00539 5.882923,2.39042 -0.830087,2.04293 -5.318478,-3.7793 0.265642,-0.65405"
         style="fill:#3f244a;fill-opacity:1;fill-rule:nonzero;stroke:none;stroke-width:0.03527778"
         id="path342"
         inkscape:connector-curvature="0" />
      <path
         d="m 40.894763,167.40178 11.481154,-23.09883 9.110486,4.68172 -7.199489,24.33426 -13.392151,-5.91715"
         style="fill:#3993d7;fill-opacity:1;fill-rule:nonzero;stroke:none;stroke-width:0.03527778"
         id="path344"
         inkscape:connector-curvature="0" />
      <path
         d="M 98.560528,146.77804 63.941031,136.69248 c -3.934531,-1.14618 -8.125531,0.69038 -9.949745,4.36033 l -1.615369,3.25014 25.400001,13.05278 h 11.18729 c 5.05707,0 9.2329,-3.95217 9.510536,-9.00218 l 0.08678,-1.57551"
         style="fill:#3993d7;fill-opacity:1;fill-rule:nonzero;stroke:none;stroke-width:0.03527778"
         id="path346"
         inkscape:connector-curvature="0" />
      <path
         d="m 87.895349,143.75897 c -0.0085,0 -0.01658,-0.001 -0.02505,-0.004 L 65.378601,137.2033 c -0.04621,-0.0138 -0.07338,-0.0628 -0.05997,-0.10972 0.01411,-0.0462 0.06279,-0.0734 0.109714,-0.0596 l 22.491702,6.55215 c 0.04657,0.0138 0.07338,0.0628 0.05997,0.10936 -0.01129,0.0385 -0.04657,0.0635 -0.08467,0.0635"
         style="fill:#3f244a;fill-opacity:1;fill-rule:nonzero;stroke:none;stroke-width:0.03527778"
         id="path348"
         inkscape:connector-curvature="0" />
      <path
         d="m 98.560528,146.86623 c -0.0081,0 -0.01658,-0.001 -0.0247,-0.004 l -7.0231,-2.04611 c -0.04621,-0.0138 -0.07338,-0.0628 -0.05962,-0.10937 0.01376,-0.0466 0.06315,-0.0737 0.109362,-0.06 l 7.022747,2.04576 c 0.04657,0.0138 0.07338,0.0628 0.05997,0.10971 -0.01129,0.0381 -0.04657,0.0635 -0.08467,0.0635"
         style="fill:#3f244a;fill-opacity:1;fill-rule:nonzero;stroke:none;stroke-width:0.03527778"
         id="path350"
         inkscape:connector-curvature="0" />
      <path
         d="m 59.919717,148.17963 -3.982861,0.72213 c -3.379259,0.61278 -5.894212,3.46746 -6.076245,6.89716 l -1.453445,27.39778 h 15.786807 l -2.293056,-24.69444 15.875001,-1.14653 -17.856201,-9.1761"
         style="fill:#3993d7;fill-opacity:1;fill-rule:nonzero;stroke:none;stroke-width:0.03527778"
         id="path352"
         inkscape:connector-curvature="0" />
      <path
         d="m 58.75555,148.39094 c 0,0 11.426826,9.51336 11.413773,9.51442 -0.01235,7e-4 7.606595,-0.54963 7.606595,-0.54963 l -17.856201,-9.1761 -1.164167,0.21131"
         style="fill:#257fbf;fill-opacity:1;fill-rule:nonzero;stroke:none;stroke-width:0.03527778"
         id="path354"
         inkscape:connector-curvature="0" />
      <path
         d="m 50.327336,153.66073 c -0.01023,0 -0.02081,-0.002 -0.0314,-0.006 -0.04516,-0.0173 -0.06809,-0.0681 -0.0508,-0.11359 0.925336,-2.44828 3.100211,-4.25944 5.675842,-4.72652 l 3.982861,-0.72214 c 0.05009,-0.01 0.09349,0.0236 0.102658,0.0709 0.0085,0.048 -0.02328,0.0942 -0.07091,0.10266 l -3.982861,0.72214 c -2.515306,0.45614 -4.639028,2.22461 -5.542845,4.61539 -0.01305,0.0353 -0.04692,0.0568 -0.08255,0.0568"
         style="fill:#3f244a;fill-opacity:1;fill-rule:nonzero;stroke:none;stroke-width:0.03527778"
         id="path356"
         inkscape:connector-curvature="0" />
      <path
         d="m 61.900917,158.59045 c -0.04586,0 -0.08467,-0.0356 -0.08784,-0.0818 -0.0039,-0.0487 0.03316,-0.0907 0.08149,-0.0942 l 12.961057,-0.93592 c 0.04621,-0.0109 0.09066,0.0328 0.09384,0.0815 0.0039,0.0487 -0.03281,0.0907 -0.08149,0.0942 l -12.960704,0.93592 c -0.0021,3.5e-4 -0.0042,3.5e-4 -0.0063,3.5e-4"
         style="fill:#3f244a;fill-opacity:1;fill-rule:nonzero;stroke:none;stroke-width:0.03527778"
         id="path358"
         inkscape:connector-curvature="0" />
      <path
         d="m 48.910227,173.80117 c -0.0014,0 -0.0032,0 -0.0049,0 -0.04868,-0.003 -0.08573,-0.0441 -0.08326,-0.0928 l 0.867833,-16.3576 c 0.0028,-0.0466 0.04163,-0.0832 0.08819,-0.0832 0.0014,0 0.0032,0 0.0046,0 0.04868,0.003 0.08608,0.0441 0.08361,0.0931 l -0.867833,16.35725 c -0.0028,0.0469 -0.04163,0.0833 -0.08819,0.0833"
         style="fill:#3f244a;fill-opacity:1;fill-rule:nonzero;stroke:none;stroke-width:0.03527778"
         id="path360"
         inkscape:connector-curvature="0" />
      <path
         d="m 62.989237,170.31044 c -0.04516,0 -0.08361,-0.0346 -0.08784,-0.0801 L 61.47688,154.88909 c -0.0046,-0.0487 0.0314,-0.0917 0.07937,-0.0963 0.04904,-0.008 0.09172,0.0314 0.09631,0.0797 l 1.424516,15.34124 c 0.0046,0.0487 -0.0314,0.0917 -0.07973,0.0963 -0.0025,3.6e-4 -0.0053,3.6e-4 -0.0081,3.6e-4"
         style="fill:#3f244a;fill-opacity:1;fill-rule:nonzero;stroke:none;stroke-width:0.03527778"
         id="path362"
         inkscape:connector-curvature="0" />
      <path
         d="m 58.788006,192.22326 -0.503061,-3.25935 v -5.76721 h -6.350001 v 3.14043 c 0,1.40833 -0.595841,2.7365 -1.616075,3.67658 0.546806,0.64879 0.969786,1.40201 1.229431,2.20955 h 7.239706"
         style="fill:#fac1a4;fill-opacity:1;fill-rule:nonzero;stroke:none;stroke-width:0.03527778"
         id="path364"
         inkscape:connector-curvature="0" />
      <path
         d="m 51.5483,192.22326 c -0.259645,-0.80754 -0.682625,-1.56076 -1.229431,-2.20955 -0.171097,0.1578 -0.351014,0.30773 -0.545747,0.4421 l -0.465314,0.32135 c -0.593372,0.40954 -1.268236,0.68612 -1.978378,0.81068 l -0.898525,0.15738 c -1.869369,0.32811 -3.392311,1.68564 -3.932767,3.50477 h 16.756946 l -0.467078,-3.02673 H 51.5483"
         style="fill:#f46a9a;fill-opacity:1;fill-rule:nonzero;stroke:none;stroke-width:0.03527778"
         id="path366"
         inkscape:connector-curvature="0" />
      <path
         d="m 51.934944,183.1967 h 6.350001 v 2.20486 l -6.350001,-1.4993 v -0.70556"
         style="fill:#3f244a;fill-opacity:1;fill-rule:nonzero;stroke:none;stroke-width:0.03527778"
         id="path368"
         inkscape:connector-curvature="0" />
      <path
         d="m 110.12988,163.77946 h 1.7346 l 0.46355,4.15855 -1.84573,-0.99731 -0.35242,-3.16124"
         style="fill:#3f244a;fill-opacity:1;fill-rule:nonzero;stroke:none;stroke-width:0.03527778"
         id="path370"
         inkscape:connector-curvature="0" />
      <path
         d="m 112.32803,167.93801 2.9464,26.41529 h -1.7346 l -3.05753,-27.4126 1.84573,0.99731"
         style="fill:#93a2b0;fill-opacity:1;fill-rule:nonzero;stroke:none;stroke-width:0.03527778"
         id="path372"
         inkscape:connector-curvature="0" />
      <path
         d="m 98.978217,167.47622 2.997903,26.87708 h -1.73461 l -3.109027,-27.87474 1.845734,0.99766"
         style="fill:#93a2b0;fill-opacity:1;fill-rule:nonzero;stroke:none;stroke-width:0.03527778"
         id="path374"
         inkscape:connector-curvature="0" />
      <path
         d="m 96.831564,163.77946 h 1.734608 l 0.412045,3.69676 -1.845734,-0.99766 -0.300919,-2.6991"
         style="fill:#3f244a;fill-opacity:1;fill-rule:nonzero;stroke:none;stroke-width:0.03527778"
         id="path376"
         inkscape:connector-curvature="0" />
      <path
         d="m 93.326716,163.77946 h 1.734609 l -0.422981,3.79377 -1.636183,-0.88406 0.324555,-2.90971"
         style="fill:#3f244a;fill-opacity:1;fill-rule:nonzero;stroke:none;stroke-width:0.03527778"
         id="path378"
         inkscape:connector-curvature="0" />
      <path
         d="m 89.916413,194.3533 3.085748,-27.66413 1.636183,0.88406 -2.987322,26.78007 h -1.734609"
         style="fill:#93a2b0;fill-opacity:1;fill-rule:nonzero;stroke:none;stroke-width:0.03527778"
         id="path380"
         inkscape:connector-curvature="0" />
      <path
         d="m 79.01699,163.77946 h 1.734609 l -0.395111,3.53871 -1.635831,-0.88406 0.296333,-2.65465"
         style="fill:#3f244a;fill-opacity:1;fill-rule:nonzero;stroke:none;stroke-width:0.03527778"
         id="path382"
         inkscape:connector-curvature="0" />
      <path
         d="m 75.606687,194.3533 3.11397,-27.91919 1.635831,0.88406 -3.015192,27.03513 h -1.734609"
         style="fill:#93a2b0;fill-opacity:1;fill-rule:nonzero;stroke:none;stroke-width:0.03527778"
         id="path384"
         inkscape:connector-curvature="0" />
      <path
         d="m 121.81423,112.73322 v -2.75273 h -5.92667 c -6.99946,0 -13.02067,4.95265 -14.37146,11.82018 l -5.922081,30.10358 c -0.5207,2.64654 -2.841272,4.55507 -5.538258,4.55507 h -7.580137 c -4.042834,0 -7.320139,3.27731 -7.320139,7.32014 v 0 h 32.912755 c 3.87703,0 7.21254,-2.7432 7.96149,-6.54791 l 7.4736,-37.9917 c 0.47907,-2.43522 -0.23354,-4.78366 -1.6891,-6.50663"
         style="fill:#73769e;fill-opacity:1;fill-rule:nonzero;stroke:none;stroke-width:0.03527778"
         id="path386"
         inkscape:connector-curvature="0" />
      <path
         d="m 121.95569,157.23155 7.47395,-37.9917 c 0.94333,-4.79566 -2.72767,-9.25936 -7.61506,-9.25936 h -3.5e-4 c -6.99982,0 -13.02103,4.9523 -14.37182,11.82018 l -6.97018,35.43088 c -0.748241,3.80471 -4.083755,6.54791 -7.961136,6.54791 h -0.28575 21.769216 c 3.87738,0 7.21289,-2.7432 7.96113,-6.54791"
         style="fill:#3e4c78;fill-opacity:1;fill-rule:nonzero;stroke:none;stroke-width:0.03527778"
         id="path388"
         inkscape:connector-curvature="0" />
    </g>
  </g>
</svg>
