<?xml version="1.0" encoding="UTF-8" standalone="no"?>
<svg
   xmlns:dc="http://purl.org/dc/elements/1.1/"
   xmlns:cc="http://creativecommons.org/ns#"
   xmlns:rdf="http://www.w3.org/1999/02/22-rdf-syntax-ns#"
   xmlns:svg="http://www.w3.org/2000/svg"
   xmlns="http://www.w3.org/2000/svg"
   xmlns:sodipodi="http://sodipodi.sourceforge.net/DTD/sodipodi-0.dtd"
   xmlns:inkscape="http://www.inkscape.org/namespaces/inkscape"
   width="73.767441"
   height="17.414238"
   viewBox="0 0 73.767441 17.414238"
   version="1.1"
   id="svg167"
   sodipodi:docname="dark_powered_by_logo.svg"
   inkscape:version="0.92.4 (5da689c313, 2019-01-14)">
  <metadata
     id="metadata173">
    <rdf:RDF>
      <cc:Work
         rdf:about="">
        <dc:format>image/svg+xml</dc:format>
        <dc:type
           rdf:resource="http://purl.org/dc/dcmitype/StillImage" />
        <dc:title>dark_powered_by_log</dc:title>
      </cc:Work>
    </rdf:RDF>
  </metadata>
  <defs
     id="defs171" />
  <sodipodi:namedview
     pagecolor="#ffffff"
     bordercolor="#666666"
     borderopacity="1"
     objecttolerance="10"
     gridtolerance="10"
     guidetolerance="10"
     inkscape:pageopacity="0"
     inkscape:pageshadow="2"
     inkscape:window-width="1640"
     inkscape:window-height="1021"
     id="namedview169"
     showgrid="false"
     inkscape:zoom="12.471545"
     inkscape:cx="33.232031"
     inkscape:cy="5.0841025"
     inkscape:window-x="40"
     inkscape:window-y="0"
     inkscape:window-maximized="1"
     inkscape:current-layer="svg167" />
  <title
     id="title139">dark_powered_by_log</title>
  <g
     id="g345">
    <g
       transform="scale(0.96537229,0.92740703)"
       id="g321">
      <g
         style="fill:none;fill-rule:nonzero;stroke:none;stroke-width:1"
         transform="matrix(0.62655997,0,0,0.71226391,-0.0264313,6.5563969)"
         id="JumiaFood_Logo_Orange">
        <g
           style="fill:#353535"
           transform="translate(0,3.731736)"
           id="Group">
          <path
             inkscape:connector-curvature="0"
             id="Path_2342_38_"
             d="m 8.6046252,9.9583258 c 0.2255267,0.2282312 0.4932381,0.4110322 0.788532,0.5386682 0.3088146,0.134667 0.6306088,0.236884 0.9610568,0.304488 0.340724,0.06977 0.686315,0.111952 1.03407,0.125473 0.336397,0.01406 0.674957,0.02271 1.004864,0.02271 h 2.307186 c 1.211462,0.0941 2.423465,-0.171985 3.484576,-0.764195 0.725255,-0.5462396 1.122766,-1.4240087 1.054621,-2.3293602 V 0.00486748 H 17.44343 V 7.7328052 c 0,0.919954 -0.823145,1.391018 -2.445098,1.391018 h -2.839364 c -1.64629,0 -2.4818744,-0.4694415 -2.4818744,-1.391018 V 0.00486748 H 7.8582781 V 7.8544923 C 7.845839,8.2812081 7.9150654,8.7063015 8.0627123,9.1070574 8.1860218,9.4234437 8.371527,9.7122476 8.608411,9.9561625" />
          <path
             inkscape:connector-curvature="0"
             id="Path_2343_38_"
             d="M 36.562356,11.023763 V 1.1833388 C 36.578581,0.87073832 36.477986,0.56300533 36.279501,0.32071293 36.093996,0.10924791 35.822499,-0.00703081 35.541267,0.00486748 35.137806,-0.01243912 34.75652,0.18983177 34.543974,0.53325961 L 28.882552,8.7468638 23.109719,0.519198 C 22.874458,0.1817193 22.483437,-0.01243912 22.072405,0.00486748 21.806857,-0.00594914 21.549421,0.09734963 21.364998,0.28772223 21.169758,0.50838138 21.070786,0.7977261 21.089715,1.0913975 v 9.9329065 h 1.823683 V 3.3250305 l 4.836113,7.1708815 c 0.235261,0.397511 0.66414,0.640344 1.12601,0.637131 0.209302,-0.0011 0.415359,-0.05466 0.59816,-0.156873 0.202271,-0.118442 0.373714,-0.282854 0.500269,-0.479717 l 4.770131,-7.1113902 v 7.6387002 z" />
          <rect
             height="10.944262"
             width="1.823683"
             y="0.0048674811"
             x="38.340611"
             id="Rectangle_580_38_" />
          <path
             inkscape:connector-curvature="0"
             id="Path_2344_38_"
             d="m 52.022017,7.9691485 1.744181,3.0427165 h 2.041638 L 49.768914,0.67982488 C 49.49255,0.09464547 48.793796,-0.1557594 48.208616,0.1211462 47.95713,0.24012908 47.756481,0.44456329 47.641825,0.69767232 L 41.476889,11.014569 h 2.152509 l 1.703618,-3.0427164 z m -3.389389,-5.5905727 2.3034,3.7652672 h -4.563534 z" />
          <path
             inkscape:connector-curvature="0"
             id="Path_2345_38_"
             d="M 4.3358441,6.0838107 C 4.3910089,7.8020316 3.9507723,8.7906712 2.9556428,9.1892638 2.0129739,9.4959151 1.0324469,9.6716853 0.04218484,9.7106251 L 0.06111393,11.752263 C 0.97133293,11.660863 1.8745211,11.507807 2.7641885,11.293638 5.076783,10.78742 6.1097706,9.1806105 6.1097706,6.0838107 v -0.00379 L 6.1968445,0.01135746 4.3801923,0.00594914 V 1.9670033 Z" />
        </g>
        <g
           style="fill:#ff9900"
           transform="translate(58.896523)"
           id="g163">
          <g
             id="g151"
             transform="translate(15.684106,3.677653)">
            <path
               inkscape:connector-curvature="0"
               id="Path_2338_42_"
               d="m 1.6641378,6.71442 v 4.408315 H 0.02109242 V 3.8431469 C 0.01081663,3.2482325 0.06814474,2.6543998 0.19091343,2.0724654 0.27960976,1.6349329 0.48242148,1.2287686 0.778797,0.89453489 1.0854483,0.58031193 1.4716018,0.3547853 1.8966952,0.24337406 2.467813,0.09464547 3.0573191,0.02541907 3.647366,0.03785819 h 6.487812 V 1.6727911 H 3.6489885 C 3.086524,1.6127588 2.5262228,1.7993456 2.111946,2.1844174 1.769059,2.6819822 1.6111363,3.2839274 1.6657603,3.8858725 v 1.2038904 h 6.4126361 v 1.6268204 z" />
            <path
               inkscape:connector-curvature="0"
               id="Path_2339_42_"
               d="m 14.905309,11.122735 c -0.588424,0.01244 -1.176308,-0.05625 -1.746344,-0.203352 C 12.733331,10.809594 12.346096,10.584068 12.040526,10.268222 11.744692,9.9366926 11.542961,9.5326917 11.454806,9.0978633 11.330415,8.5137656 11.273087,7.9172287 11.283362,7.3196102 V 3.8431469 c -0.0097,-0.5949144 0.04813,-1.1887471 0.171444,-1.7706815 0.08761,-0.4375325 0.289886,-0.8436968 0.58572,-1.17793051 0.306652,-0.31530462 0.693346,-0.54029042 1.118439,-0.65116083 0.570036,-0.14872859 1.157379,-0.21795499 1.746344,-0.20551587 h 3.592742 c 0.593833,-0.01297995 1.187125,0.05624645 1.762028,0.20551587 0.424553,0.11195207 0.810707,0.33693787 1.116817,0.65116083 0.296376,0.33369291 0.498647,0.74039801 0.587343,1.17793051 0.122768,0.5819344 0.179556,1.1763079 0.168739,1.7706815 V 7.320151 c 0.0119,0.5970777 -0.04489,1.1936146 -0.168739,1.7782532 -0.08924,0.4353691 -0.291508,0.8388292 -0.587343,1.1703588 -0.30611,0.314764 -0.692264,0.54029 -1.116817,0.651161 -0.575444,0.147647 -1.168195,0.215792 -1.762028,0.203352 z m 5.585705,-7.2893231 c 0.007,-0.3547853 -0.02434,-0.7090298 -0.09356,-1.0567842 C 20.354184,2.5300086 20.244936,2.2996145 20.082146,2.1097827 19.916111,1.93888 19.703564,1.8198972 19.471007,1.7685182 19.155161,1.6965876 18.831744,1.6635969 18.508327,1.6706277 h -3.599232 c -0.34505,-0.00865 -0.690101,0.024337 -1.027038,0.09789 -0.231476,0.048134 -0.44186,0.1676577 -0.601946,0.3412645 -0.153055,0.1925359 -0.251486,0.4229301 -0.283395,0.666845 -0.05192,0.3499178 -0.07626,0.7030806 -0.07247,1.0567842 V 7.315283 c -0.0049,0.3699286 0.01947,0.7393163 0.07247,1.1054591 0.03137,0.2422924 0.129259,0.4705232 0.283395,0.6598141 0.16225,0.1681985 0.372633,0.2817731 0.601946,0.3255804 0.338019,0.066522 0.682529,0.096268 1.027038,0.089237 h 3.599232 c 0.323417,0.00595 0.646293,-0.023797 0.96268,-0.089237 0.230935,-0.047052 0.443481,-0.160086 0.611139,-0.3255804 0.163872,-0.1865868 0.27312,-0.4148175 0.315305,-0.6598141 0.07031,-0.3639794 0.101676,-0.7344489 0.09356,-1.1054591 z" />
            <path
               inkscape:connector-curvature="0"
               id="Path_2340_42_"
               d="m 27.35849,11.122735 c -0.590047,0.01244 -1.178472,-0.05625 -1.75013,-0.203352 -0.424553,-0.11087 -0.810706,-0.335856 -1.116276,-0.651161 C 24.196249,9.9366926 23.993438,9.5326917 23.904201,9.0978633 23.780891,8.5132247 23.724104,7.9166879 23.734379,7.3196102 V 3.8431469 c -0.0092,-0.5949144 0.04759,-1.1887471 0.169822,-1.7706815 0.0887,-0.4375325 0.292048,-0.8436968 0.587883,-1.17793051 0.306111,-0.31422296 0.691723,-0.53974959 1.116276,-0.65116083 0.571118,-0.14872859 1.160083,-0.21795499 1.75013,-0.20551587 h 3.588415 c 0.594374,-0.01297995 1.187666,0.05624645 1.76311,0.20551587 0.424553,0.11195207 0.810706,0.33693787 1.116816,0.65116083 0.296376,0.33369291 0.499188,0.73985711 0.587343,1.17793051 0.122769,0.5819344 0.180097,1.1763079 0.169821,1.7706815 V 7.320151 c 0.01082,0.5970777 -0.04597,1.1936146 -0.169821,1.7782532 -0.0887,0.4353691 -0.291508,0.8393701 -0.587343,1.1703588 -0.30611,0.314764 -0.692263,0.54029 -1.116816,0.651161 -0.575444,0.147647 -1.168736,0.216332 -1.76311,0.203352 z M 32.943654,3.8334119 C 32.949603,3.4786266 32.918776,3.124923 32.851713,2.7766277 32.807365,2.5294678 32.697576,2.2990737 32.532622,2.1097827 32.367669,1.93888 32.156204,1.820438 31.924187,1.7685182 31.608342,1.6971285 31.284384,1.6652194 30.960426,1.6727911 h -3.599773 c -0.34451,-0.00865 -0.688478,0.024337 -1.024875,0.09789 -0.232017,0.047593 -0.443482,0.1671169 -0.604109,0.3412645 -0.153596,0.1919951 -0.250945,0.4229301 -0.281232,0.666845 -0.053,0.3499178 -0.0768,0.7030806 -0.07247,1.0567842 v 3.4797083 c -0.0054,0.3699286 0.01839,0.7393163 0.07247,1.1054591 0.0292,0.2422924 0.127095,0.471064 0.281232,0.6598141 0.16279,0.1681985 0.373715,0.2823139 0.604109,0.3255804 0.337478,0.066522 0.680906,0.096268 1.024875,0.089237 h 3.599773 c 0.323417,0.00595 0.646834,-0.023797 0.963761,-0.089237 0.229853,-0.047593 0.441318,-0.1606268 0.608435,-0.3255804 0.165495,-0.1860459 0.275824,-0.4142767 0.319091,-0.6598141 0.06869,-0.3645203 0.09951,-0.7349897 0.09194,-1.1054591 z" />
            <path
               inkscape:connector-curvature="0"
               id="Path_2341_42_"
               d="M 36.258409,11.122735 V 0.04110318 h 7.523503 c 0.594915,-0.01297995 1.188747,0.05624645 1.764192,0.20551587 0.424552,0.1124929 0.811247,0.3374787 1.11898,0.65116083 0.295834,0.33423372 0.498105,0.74039802 0.587342,1.17793042 0.120065,0.5813936 0.175771,1.1741447 0.164954,1.7674366 V 7.320151 c 0.01028,0.5970777 -0.04651,1.1936146 -0.169821,1.7782532 -0.08978,0.4348283 -0.29259,0.8388292 -0.587343,1.1703588 -0.307192,0.314223 -0.693886,0.53975 -1.11898,0.651161 -0.575985,0.147647 -1.169818,0.215792 -1.764191,0.203352 z m 9.520252,-7.2893231 c 0.007,-0.3515403 -0.0238,-0.7030806 -0.09248,-1.0481309 C 45.64129,2.5408252 45.531501,2.3131353 45.36763,2.1260077 45.199972,1.9529417 44.985803,1.8312546 44.751082,1.7750082 44.433614,1.6992918 44.107493,1.6646786 43.780831,1.6706277 h -5.878295 v 7.8247466 h 5.878295 c 0.302865,0.00433 0.604649,-0.025419 0.900484,-0.089237 C 44.913872,9.3558398 45.1275,9.2401019 45.29624,9.0719034 45.469847,8.8858575 45.593697,8.65979 45.658056,8.4137118 45.746752,8.0589265 45.787315,7.6938654 45.77812,7.3288043 V 3.8334119 Z" />
          </g>
          <g
             id="g161">
            <path
               inkscape:connector-curvature="0"
               id="Shape"
               d="M 12.852314,2.3255744 C 12.769026,2.1914482 12.678166,2.0627304 12.579735,1.9394209 12.447231,1.7495891 12.295258,1.5743598 12.125437,1.4164371 L 11.966432,1.2574327 11.602994,0.9621388 11.239555,0.71227476 11.035121,0.5987002 C 10.333663,0.20713837 9.5435083,0.00378582 8.7403739,0.00811247 7.9372394,5.4083125e-4 7.1460033,0.20443421 6.4461677,0.5987002 L 6.2417335,0.71227476 5.85558,0.9621388 5.4921414,1.2574327 5.333137,1.4164371 C 5.163316,1.5738189 5.0113424,1.7490483 4.8788387,1.9394209 4.4472554,2.5002629 4.1514207,3.1530462 4.015672,3.8474735 3.9426598,4.1681865 3.9048016,4.4959302 3.9020975,4.8247556 c 0.00541,0.4856665 0.082206,0.9680879 0.2271491,1.4315803 0.069767,0.224445 0.1530552,0.4445633 0.2498641,0.6587325 l 0.2271491,0.4088684 0.1362894,0.1817193 c 0.07788,0.1373711 0.1692802,0.2666298 0.272579,0.3861535 0.1963217,0.2417516 0.4175217,0.4624108 0.6587325,0.6587325 L 6.0372993,8.823121 c 0.1206053,0.088696 0.249864,0.1649536 0.3861535,0.2271492 0.7014581,0.3915618 1.4916126,0.5949144 2.294747,0.5906553 0.7998894,0.00318 1.5884212,-0.1920627 2.2947472,-0.5679404 l 0.204434,-0.1362895 c 0.197944,-0.1157379 0.387776,-0.2444557 0.567873,-0.3861535 0.113574,-0.1135746 0.249864,-0.2044342 0.340723,-0.3180088 l 0.318009,-0.3407237 0.27312,-0.3634386 0.13629,-0.2044342 C 13.300663,6.5667731 13.535925,5.7036064 13.534843,4.8247556 13.5462,3.9442823 13.309857,3.0784115 12.852314,2.3255744 M 12.284441,3.6435801 10.512137,5.3704543 10.921006,7.8242057 8.7171181,6.6657452 6.5359457,7.8242057 6.9448141,5.3704543 5.1725101,3.6435801 7.6262615,3.2801415 8.7392922,1.0535393 9.829608,3.2801415 Z" />
            <g
               id="Path"
               transform="translate(0,6.976723)">
              <path
                 inkscape:connector-curvature="0"
                 id="path154"
                 d="M 0.8582992,4.7052337 C 0.69550899,4.7046911 0.53163712,4.6554754 0.3893985,4.5537991 0.02379658,4.2925776 -0.0605731,3.7847371 0.20010756,3.4191352 L 2.391015,0.35045865 c 0.2606806,-0.36560193 0.769062,-0.45051243 1.1346639,-0.18929094 0.365602,0.2612215 0.4499716,0.76906204 0.189291,1.13466399 L 1.5240625,4.3645082 C 1.3645172,4.5873307 1.1130307,4.7057727 0.8582992,4.7052337 Z" />
              <path
                 inkscape:connector-curvature="0"
                 id="path156"
                 d="M 5.9729403,8.3136654 C 5.8101501,8.3131172 5.6462783,8.2639015 5.5040396,8.1622253 5.1384377,7.9010038 5.054068,7.3931632 5.3147487,7.0275613 L 7.5056561,3.9588848 C 7.7663368,3.5932828 8.2741773,3.5083723 8.6403201,3.7695938 9.005922,4.0308153 9.0902917,4.5386559 8.829611,4.9042578 L 6.6387036,7.9729343 C 6.4791584,8.1962976 6.2276719,8.3147397 5.9729403,8.3136654 Z" />
              <path
                 inkscape:connector-curvature="0"
                 id="path158"
                 d="M 0.87614663,10.181156 C 0.71389725,10.180608 0.55056621,10.131933 0.40886843,10.030797 0.04272567,9.7706574 -0.04272567,9.2628169 0.21741416,8.8966741 L 4.5348701,2.8231391 C 4.7950099,2.4569964 5.3028504,2.3710042 5.6689932,2.6316849 6.0351359,2.8918247 6.1205873,3.3996653 5.8604474,3.765808 L 1.5429916,9.839343 C 1.3834463,10.063247 1.1319598,10.18223 0.87614663,10.181156 Z" />
            </g>
          </g>
        </g>
      </g>
      <text
         transform="scale(1.126062,0.88805056)"
         id="text177"
         y="4.0660973"
         x="1.0789051"
         style="font-style:normal;font-variant:normal;font-weight:300;font-stretch:normal;font-size:5.74307537px;line-height:1.25;font-family:Ubuntu;-inkscape-font-specification:'Ubuntu, Light';font-variant-ligatures:normal;font-variant-caps:normal;font-variant-numeric:normal;font-feature-settings:normal;text-align:start;letter-spacing:0px;word-spacing:0px;writing-mode:lr-tb;text-anchor:start;fill:#000000;fill-opacity:1;fill-rule:evenodd;stroke:none;stroke-width:0.23929574"
         xml:space="preserve"><tspan
           style="font-style:normal;font-variant:normal;font-weight:300;font-stretch:normal;font-size:5.74307537px;font-family:Ubuntu;-inkscape-font-specification:'Ubuntu, Light';font-variant-ligatures:normal;font-variant-caps:normal;font-variant-numeric:normal;font-feature-settings:normal;text-align:start;writing-mode:lr-tb;text-anchor:start;stroke-width:0.23929574"
           y="4.0660973"
           x="1.0789051"
           id="tspan37"
           sodipodi:role="line">POWERED BY</tspan></text>
    </g>
  </g>
</svg>
